<svg width="370" height="188" viewBox="0 0 370 188" fill="none" xmlns="http://www.w3.org/2000/svg">
<g filter="url(#filter0_d_979_5239)">
<circle cx="85" cy="140" r="20" fill="white"/>
</g>
<g clip-path="url(#clip0_979_5239)">
<path d="M77.8572 147.143L78.4599 145.244C78.4824 145.173 78.5257 145.111 78.5836 145.068C78.6415 145.024 78.711 145 78.7823 145H91.2177C91.2891 145 91.3586 145.024 91.4165 145.068C91.4743 145.111 91.5176 145.173 91.5402 145.244L92.1429 147.14" stroke="#005666" stroke-linecap="round" stroke-linejoin="round"/>
<path d="M79.2858 137.857H90.7143V145H79.2858V137.857Z" stroke="#005666" stroke-linecap="round" stroke-linejoin="round"/>
<path d="M92.8571 147.143H77.1428" stroke="#005666" stroke-linecap="round" stroke-linejoin="round"/>
<path d="M81.4286 137.857V145" stroke="#005666" stroke-linecap="round" stroke-linejoin="round"/>
<path d="M83.5714 137.857V145" stroke="#005666" stroke-linecap="round" stroke-linejoin="round"/>
<path d="M86.4286 137.857V145" stroke="#005666" stroke-linecap="round" stroke-linejoin="round"/>
<path d="M88.5714 137.857V145" stroke="#005666" stroke-linecap="round" stroke-linejoin="round"/>
<path d="M92.1253 135.977C92.1504 135.898 92.1486 135.813 92.1203 135.735C92.092 135.657 92.0389 135.592 91.9701 135.551L85.1731 131.477C85.1209 131.445 85.0617 131.429 85.0014 131.429C84.9411 131.429 84.8819 131.445 84.8297 131.477L78.03 135.548C77.9611 135.59 77.9081 135.655 77.8798 135.732C77.8515 135.81 77.8497 135.896 77.8748 135.974L78.3995 137.611C78.4223 137.683 78.466 137.745 78.5244 137.789C78.5828 137.833 78.653 137.857 78.7251 137.857H91.2805C91.3525 137.857 91.4227 137.833 91.4812 137.789C91.5396 137.745 91.5833 137.683 91.606 137.611L92.1253 135.977Z" stroke="#005666" stroke-linecap="round" stroke-linejoin="round"/>
<path d="M92.1429 135.714H77.8572" stroke="#005666" stroke-linecap="round" stroke-linejoin="round"/>
</g>
<g filter="url(#filter1_d_979_5239)">
<circle cx="40" cy="88" r="20" fill="white"/>
</g>
<g clip-path="url(#clip1_979_5239)">
<path d="M46.2664 82.5571H33.739C33.0107 82.5571 32.4203 83.1475 32.4203 83.8758V91.7879C32.4203 92.5162 33.0107 93.1066 33.739 93.1066H46.2664C46.9947 93.1066 47.5851 92.5162 47.5851 91.7879V83.8758C47.5851 83.1475 46.9947 82.5571 46.2664 82.5571Z" stroke="#005666" stroke-linecap="round" stroke-linejoin="round"/>
<path d="M32.4203 85.1945H47.5851" stroke="#005666" stroke-linecap="round" stroke-linejoin="round"/>
<path d="M45.6071 87.8319H43.6291" stroke="#005666" stroke-linecap="round" stroke-linejoin="round"/>
<path d="M39.673 87.8319H34.3983" stroke="#005666" stroke-linecap="round" stroke-linejoin="round"/>
<path d="M36.3763 89.8099H34.3983" stroke="#005666" stroke-linecap="round" stroke-linejoin="round"/>
</g>
<g filter="url(#filter2_d_979_5239)">
<circle cx="85" cy="36" r="20" fill="white"/>
</g>
<g clip-path="url(#clip2_979_5239)">
<path d="M89.4667 36.238C89.4739 35.6116 89.6397 34.9972 89.9487 34.4522C90.2576 33.9072 90.6996 33.4493 91.2333 33.1214C90.8935 32.6383 90.4467 32.2404 89.9278 31.9585C89.4089 31.6766 88.8318 31.5185 88.2417 31.4964C86.9667 31.3714 85.7417 32.2464 85.1083 32.2464C84.475 32.2464 83.4417 31.513 82.4083 31.5297C81.7138 31.5481 81.036 31.7468 80.4414 32.1062C79.8468 32.4656 79.3559 32.9733 79.0167 33.5797C77.575 36.0797 78.65 39.7963 80.0583 41.8297C80.7417 42.8213 81.5667 43.938 82.6417 43.8964C83.7167 43.8547 84.075 43.2297 85.325 43.2297C86.575 43.2297 86.9333 43.8963 88.025 43.8797C89.1167 43.863 89.85 42.863 90.525 41.8714C91.0133 41.1631 91.3978 40.3886 91.6667 39.5714C91.0132 39.2931 90.4561 38.8287 90.0648 38.2359C89.6736 37.6431 89.4656 36.9483 89.4667 36.238Z" stroke="#005666" stroke-linecap="round" stroke-linejoin="round"/>
<path d="M87.7583 28.2048C88.4618 27.3733 88.8118 26.2995 88.7333 25.2131C87.6659 25.3129 86.6779 25.8203 85.975 26.6298C85.6217 27.0285 85.3532 27.4949 85.1856 28.0006C85.018 28.5062 84.9548 29.0407 85 29.5715C85.5337 29.5702 86.0601 29.4463 86.5383 29.2094C87.0166 28.9724 87.434 28.6287 87.7583 28.2048Z" stroke="#005666" stroke-linecap="round" stroke-linejoin="round"/>
</g>
<g filter="url(#filter3_d_979_5239)">
<circle cx="330" cy="88" r="20" fill="white"/>
</g>
<g clip-path="url(#clip3_979_5239)">
<path d="M322.857 95.143L323.46 93.2441C323.482 93.1731 323.526 93.1113 323.584 93.0675C323.641 93.0238 323.711 93.0002 323.782 93.0001H336.218C336.289 93.0002 336.359 93.0238 336.416 93.0675C336.474 93.1113 336.518 93.1731 336.54 93.2441L337.143 95.1401" stroke="#005666" stroke-linecap="round" stroke-linejoin="round"/>
<path d="M324.286 85.8572H335.714V93H324.286V85.8572Z" stroke="#005666" stroke-linecap="round" stroke-linejoin="round"/>
<path d="M337.857 95.1429H322.143" stroke="#005666" stroke-linecap="round" stroke-linejoin="round"/>
<path d="M326.429 85.8572V93" stroke="#005666" stroke-linecap="round" stroke-linejoin="round"/>
<path d="M328.571 85.8572V93" stroke="#005666" stroke-linecap="round" stroke-linejoin="round"/>
<path d="M331.429 85.8572V93" stroke="#005666" stroke-linecap="round" stroke-linejoin="round"/>
<path d="M333.571 85.8572V93" stroke="#005666" stroke-linecap="round" stroke-linejoin="round"/>
<path d="M337.125 83.9773C337.15 83.8984 337.149 83.8128 337.12 83.7352C337.092 83.6575 337.039 83.5924 336.97 83.5511L330.173 79.4768C330.121 79.4452 330.062 79.4286 330.001 79.4286C329.941 79.4286 329.882 79.4452 329.83 79.4768L323.03 83.5482C322.961 83.5895 322.908 83.6546 322.88 83.7323C322.851 83.81 322.85 83.8955 322.875 83.9744L323.4 85.6109C323.422 85.6826 323.466 85.7449 323.524 85.7891C323.583 85.8333 323.653 85.8571 323.725 85.8572H336.28C336.353 85.8571 336.423 85.8333 336.481 85.7891C336.54 85.7449 336.583 85.6826 336.606 85.6109L337.125 83.9773Z" stroke="#005666" stroke-linecap="round" stroke-linejoin="round"/>
<path d="M337.143 83.7144H322.857" stroke="#005666" stroke-linecap="round" stroke-linejoin="round"/>
</g>
<g filter="url(#filter4_d_979_5239)">
<circle cx="319" cy="144" r="20" fill="white"/>
</g>
<path d="M316.37 148.583L311.345 147L311.31 146.99C311.025 146.927 310.728 146.97 310.473 147.11C310.217 147.251 310.022 147.48 309.924 147.754C309.825 148.028 309.83 148.329 309.937 148.6C310.045 148.871 310.247 149.093 310.507 149.226C320.369 154.333 317.853 154.103 328.142 150.673" stroke="#005666" stroke-linecap="round" stroke-linejoin="round"/>
<path d="M322.368 149.033L317.302 149.007C316.971 149.007 316.653 148.875 316.419 148.641C316.184 148.406 316.052 148.088 316.052 147.757" stroke="#005666" stroke-linecap="round" stroke-linejoin="round"/>
<path d="M328.142 144.417H326.353C325.407 144.415 324.466 144.562 323.565 144.851" stroke="#005666" stroke-linecap="round" stroke-linejoin="round"/>
<path d="M316.322 138.718H314.967C314.759 138.718 314.557 138.79 314.396 138.922C314.236 139.054 314.126 139.238 314.086 139.443C314.047 139.647 314.08 139.859 314.18 140.042C314.28 140.224 314.44 140.366 314.634 140.443L316.01 140.994C316.203 141.072 316.363 141.214 316.462 141.396C316.562 141.578 316.594 141.79 316.555 141.994C316.516 142.198 316.406 142.382 316.246 142.514C316.086 142.646 315.884 142.719 315.676 142.718H314.322" stroke="#005666" stroke-linecap="round" stroke-linejoin="round"/>
<path d="M315.319 138.718V137.75" stroke="#005666" stroke-linecap="round" stroke-linejoin="round"/>
<path d="M315.319 143.583V142.718" stroke="#005666" stroke-linecap="round" stroke-linejoin="round"/>
<path d="M315.319 145.302C312.788 145.302 310.736 143.25 310.736 140.718C310.736 138.187 312.788 136.135 315.319 136.135C317.85 136.135 319.902 138.187 319.902 140.718C319.902 143.25 317.85 145.302 315.319 145.302Z" stroke="#005666" stroke-linecap="round" stroke-linejoin="round"/>
<circle cx="222.5" cy="121.5" r="48.5" fill="url(#paint0_linear_979_5239)"/>
<path d="M85 112.333C86.4728 112.333 87.6667 113.527 87.6667 115C87.6667 116.473 86.4728 117.667 85 117.667C83.5272 117.667 82.3333 116.473 82.3333 115C82.3333 113.527 83.5272 112.333 85 112.333ZM143 97.5L142.045 97.5L142.045 96.5L143 96.5L143 97.5ZM140.136 97.5L138.227 97.5L138.227 96.5L140.136 96.5L140.136 97.5ZM136.318 97.5L134.409 97.5L134.409 96.5L136.318 96.5L136.318 97.5ZM132.5 97.5L130.591 97.5L130.591 96.5L132.5 96.5L132.5 97.5ZM128.682 97.5L126.773 97.5L126.773 96.5L128.682 96.5L128.682 97.5ZM124.864 97.5L122.955 97.5L122.955 96.5L124.864 96.5L124.864 97.5ZM121.045 97.5L119.136 97.5L119.136 96.5L121.045 96.5L121.045 97.5ZM117.227 97.5L115.318 97.5L115.318 96.5L117.227 96.5L117.227 97.5ZM113.409 97.5L111.5 97.5L111.5 96.5L113.409 96.5L113.409 97.5ZM109.591 97.5L107.682 97.5L107.682 96.5L109.591 96.5L109.591 97.5ZM105.773 97.5L103.864 97.5L103.864 96.5L105.773 96.5L105.773 97.5ZM101.955 97.5L101 97.5L101 96.5L101.955 96.5L101.955 97.5ZM101 97.5C100.659 97.5 100.32 97.511 99.9848 97.5327L99.9203 96.5348C100.277 96.5117 100.637 96.5 101 96.5L101 97.5ZM97.9744 97.795C97.305 97.9275 96.6511 98.103 96.0158 98.3186L95.6944 97.3717C96.3711 97.142 97.0675 96.9551 97.7804 96.8141L97.9744 97.795ZM94.1433 99.0951C93.5347 99.3958 92.9486 99.7353 92.3883 100.11L91.832 99.2795C92.4284 98.8802 93.0523 98.5187 93.7004 98.1985L94.1433 99.0951ZM90.7802 101.346C90.2716 101.793 89.7925 102.272 89.3461 102.78L88.5946 102.121C89.0695 101.579 89.5794 101.07 90.1206 100.595L90.7802 101.346ZM88.1104 104.388C87.7353 104.949 87.3958 105.535 87.0951 106.143L86.1985 105.7C86.5187 105.052 86.8802 104.428 87.2795 103.832L88.1104 104.388ZM86.3186 108.016C86.103 108.651 85.9275 109.305 85.795 109.974L84.8141 109.78C84.9551 109.068 85.142 108.371 85.3717 107.694L86.3186 108.016ZM85.5327 111.985C85.511 112.32 85.5 112.659 85.5 113L84.5 113C84.5 112.637 84.5117 112.277 84.5348 111.92L85.5327 111.985ZM85.5 113L85.5 113.5L84.5 113.5L84.5 113L85.5 113ZM85.5 114.5L85.5 115L84.5 115L84.5 114.5L85.5 114.5Z" fill="#005666"/>
<path d="M85 63.6667C86.4728 63.6667 87.6667 62.4728 87.6667 61C87.6667 59.5272 86.4728 58.3333 85 58.3333C83.5272 58.3333 82.3333 59.5272 82.3333 61C82.3333 62.4728 83.5272 63.6667 85 63.6667ZM143 78.5L142.045 78.5L142.045 79.5L143 79.5L143 78.5ZM140.136 78.5L138.227 78.5L138.227 79.5L140.136 79.5L140.136 78.5ZM136.318 78.5L134.409 78.5L134.409 79.5L136.318 79.5L136.318 78.5ZM132.5 78.5L130.591 78.5L130.591 79.5L132.5 79.5L132.5 78.5ZM128.682 78.5L126.773 78.5L126.773 79.5L128.682 79.5L128.682 78.5ZM124.864 78.5L122.955 78.5L122.955 79.5L124.864 79.5L124.864 78.5ZM121.045 78.5L119.136 78.5L119.136 79.5L121.045 79.5L121.045 78.5ZM117.227 78.5L115.318 78.5L115.318 79.5L117.227 79.5L117.227 78.5ZM113.409 78.5L111.5 78.5L111.5 79.5L113.409 79.5L113.409 78.5ZM109.591 78.5L107.682 78.5L107.682 79.5L109.591 79.5L109.591 78.5ZM105.773 78.5L103.864 78.5L103.864 79.5L105.773 79.5L105.773 78.5ZM101.955 78.5L101 78.5L101 79.5L101.955 79.5L101.955 78.5ZM101 78.5C100.659 78.5 100.32 78.489 99.9848 78.4673L99.9203 79.4652C100.277 79.4883 100.637 79.5 101 79.5L101 78.5ZM97.9744 78.205C97.305 78.0725 96.6511 77.897 96.0158 77.6814L95.6944 78.6283C96.3711 78.858 97.0675 79.0449 97.7804 79.1859L97.9744 78.205ZM94.1433 76.9049C93.5347 76.6042 92.9486 76.2647 92.3883 75.8896L91.832 76.7205C92.4284 77.1198 93.0523 77.4813 93.7004 77.8015L94.1433 76.9049ZM90.7802 74.6539C90.2716 74.2075 89.7925 73.7284 89.3461 73.2198L88.5946 73.8794C89.0695 74.4206 89.5794 74.9305 90.1206 75.4054L90.7802 74.6539ZM88.1104 71.6117C87.7353 71.0514 87.3958 70.4653 87.0951 69.8567L86.1985 70.2996C86.5187 70.9477 86.8802 71.5716 87.2795 72.168L88.1104 71.6117ZM86.3186 67.9842C86.103 67.3489 85.9275 66.695 85.795 66.0256L84.8141 66.2196C84.9551 66.9325 85.142 67.6289 85.3717 68.3056L86.3186 67.9842ZM85.5327 64.0152C85.511 63.6797 85.5 63.3412 85.5 63L84.5 63C84.5 63.3627 84.5117 63.7227 84.5348 64.0797L85.5327 64.0152ZM85.5 63L85.5 62.5L84.5 62.5L84.5 63L85.5 63ZM85.5 61.5L85.5 61L84.5 61L84.5 61.5L85.5 61.5Z" fill="#005666"/>
<path d="M303 85.3333C301.527 85.3333 300.333 86.5272 300.333 88C300.333 89.4728 301.527 90.6667 303 90.6667C304.473 90.6667 305.667 89.4728 305.667 88C305.667 86.5272 304.473 85.3333 303 85.3333ZM286.058 88L286.058 88.5L286.058 88ZM262 88.5L263.002 88.5L263.002 87.5L262 87.5L262 88.5ZM265.007 88.5L267.012 88.5L267.012 87.5L265.007 87.5L265.007 88.5ZM269.017 88.5L271.022 88.5L271.022 87.5L269.017 87.5L269.017 88.5ZM273.027 88.5L275.031 88.5L275.031 87.5L273.027 87.5L273.027 88.5ZM277.036 88.5L279.041 88.5L279.041 87.5L277.036 87.5L277.036 88.5ZM281.046 88.5L283.051 88.5L283.051 87.5L281.046 87.5L281.046 88.5ZM285.055 88.5L286.058 88.5L286.058 87.5L285.055 87.5L285.055 88.5ZM286.058 88.5L287.117 88.5L287.117 87.5L286.058 87.5L286.058 88.5ZM289.235 88.5L291.352 88.5L291.352 87.5L289.235 87.5L289.235 88.5ZM293.47 88.5L295.588 88.5L295.588 87.5L293.47 87.5L293.47 88.5ZM297.706 88.5L299.823 88.5L299.823 87.5L297.706 87.5L297.706 88.5ZM301.941 88.5L303 88.5L303 87.5L301.941 87.5L301.941 88.5Z" fill="#005666"/>
<path d="M290.333 144C290.333 142.527 291.527 141.333 293 141.333C294.473 141.333 295.667 142.527 295.667 144C295.667 145.473 294.473 146.667 293 146.667C291.527 146.667 290.333 145.473 290.333 144ZM271.5 100L271.5 101H270.5L270.5 100H271.5ZM271.5 103L271.5 105H270.5L270.5 103H271.5ZM271.5 107L271.5 109H270.5L270.5 107H271.5ZM271.5 111L271.5 113H270.5L270.5 111H271.5ZM271.5 115L271.5 117H270.5L270.5 115H271.5ZM271.5 119L271.5 121H270.5L270.5 119H271.5ZM271.5 123L271.5 125H270.5L270.5 123H271.5ZM271.5 127L271.5 128H270.5L270.5 127H271.5ZM271.5 128C271.5 128.341 271.511 128.68 271.533 129.015L270.535 129.08C270.512 128.723 270.5 128.363 270.5 128H271.5ZM271.795 131.026C271.927 131.695 272.103 132.349 272.319 132.984L271.372 133.306C271.142 132.629 270.955 131.932 270.814 131.22L271.795 131.026ZM273.095 134.857C273.396 135.465 273.735 136.051 274.11 136.612L273.279 137.168C272.88 136.572 272.519 135.948 272.199 135.3L273.095 134.857ZM275.346 138.22C275.793 138.728 276.272 139.207 276.78 139.654L276.121 140.405C275.579 139.93 275.07 139.421 274.595 138.879L275.346 138.22ZM278.388 140.89C278.949 141.265 279.535 141.604 280.143 141.905L279.7 142.801C279.052 142.481 278.428 142.12 277.832 141.721L278.388 140.89ZM282.016 142.681C282.651 142.897 283.305 143.073 283.974 143.205L283.78 144.186C283.068 144.045 282.371 143.858 281.694 143.628L282.016 142.681ZM285.985 143.467C286.32 143.489 286.659 143.5 287 143.5L287 144.5C286.637 144.5 286.277 144.488 285.92 144.465L285.985 143.467ZM287 143.5H288.5L288.5 144.5H287L287 143.5ZM291.5 143.5H293L293 144.5H291.5L291.5 143.5Z" fill="#005666"/>
<path d="M67 90.6667C68.4728 90.6667 69.6667 89.4728 69.6667 88C69.6667 86.5272 68.4728 85.3333 67 85.3333C65.5272 85.3333 64.3333 86.5272 64.3333 88C64.3333 89.4728 65.5272 90.6667 67 90.6667ZM107.5 88L107.5 87.5L107.5 88ZM165.5 87.5L164.533 87.5L164.533 88.5L165.5 88.5L165.5 87.5ZM162.6 87.5L160.667 87.5L160.667 88.5L162.6 88.5L162.6 87.5ZM158.733 87.5L156.8 87.5L156.8 88.5L158.733 88.5L158.733 87.5ZM154.867 87.5L152.933 87.5L152.933 88.5L154.867 88.5L154.867 87.5ZM151 87.5L149.067 87.5L149.067 88.5L151 88.5L151 87.5ZM147.133 87.5L145.2 87.5L145.2 88.5L147.133 88.5L147.133 87.5ZM143.267 87.5L141.333 87.5L141.333 88.5L143.267 88.5L143.267 87.5ZM139.4 87.5L137.467 87.5L137.467 88.5L139.4 88.5L139.4 87.5ZM135.533 87.5L133.6 87.5L133.6 88.5L135.533 88.5L135.533 87.5ZM131.667 87.5L129.733 87.5L129.733 88.5L131.667 88.5L131.667 87.5ZM127.8 87.5L125.867 87.5L125.867 88.5L127.8 88.5L127.8 87.5ZM123.933 87.5L122 87.5L122 88.5L123.933 88.5L123.933 87.5ZM120.067 87.5L118.133 87.5L118.133 88.5L120.067 88.5L120.067 87.5ZM116.2 87.5L114.267 87.5L114.267 88.5L116.2 88.5L116.2 87.5ZM112.333 87.5L110.4 87.5L110.4 88.5L112.333 88.5L112.333 87.5ZM108.467 87.5L107.5 87.5L107.5 88.5L108.467 88.5L108.467 87.5ZM107.5 87.5L106.487 87.5L106.487 88.5L107.5 88.5L107.5 87.5ZM104.462 87.5L102.437 87.5L102.437 88.5L104.462 88.5L104.462 87.5ZM100.412 87.5L98.3875 87.5L98.3875 88.5L100.412 88.5L100.412 87.5ZM96.3625 87.5L94.3375 87.5L94.3375 88.5L96.3625 88.5L96.3625 87.5ZM92.3125 87.5L90.2875 87.5L90.2875 88.5L92.3125 88.5L92.3125 87.5ZM88.2625 87.5L86.2375 87.5L86.2375 88.5L88.2625 88.5L88.2625 87.5ZM84.2125 87.5L82.1875 87.5L82.1875 88.5L84.2125 88.5L84.2125 87.5ZM80.1625 87.5L78.1375 87.5L78.1375 88.5L80.1625 88.5L80.1625 87.5ZM76.1125 87.5L74.0875 87.5L74.0875 88.5L76.1125 88.5L76.1125 87.5ZM72.0625 87.5L70.0375 87.5L70.0375 88.5L72.0625 88.5L72.0625 87.5ZM68.0125 87.5L67 87.5L67 88.5L68.0125 88.5L68.0125 87.5Z" fill="#005666"/>
<path d="M222 88L240.091 88L266 88" stroke="#005666" stroke-dasharray="2 2"/>
<circle cx="187" cy="88" r="56" fill="url(#paint1_linear_979_5239)"/>
<path fillRule="evenodd" clipRule="evenodd" d="M179.652 64.2174C178.139 64.2174 176.913 65.4437 176.913 66.9565V97.6087C176.913 103.66 172.008 108.565 165.957 108.565C159.905 108.565 155 103.66 155 97.6087V80.9783C155 78.7091 156.84 76.8696 159.109 76.8696C161.378 76.8696 163.217 78.7091 163.217 80.9783V97.6087C163.217 99.1215 164.444 100.348 165.957 100.348C167.469 100.348 168.696 99.1215 168.696 97.6087V66.9565C168.696 60.9054 173.601 56 179.652 56C185.703 56 190.609 60.9054 190.609 66.9565V108.043C190.609 109.556 191.835 110.783 193.348 110.783C194.861 110.783 196.087 109.556 196.087 108.043V77.3913C196.087 71.3402 200.992 66.4348 207.043 66.4348C213.095 66.4348 218 71.3402 218 77.3913V94.0217C218 96.2909 216.16 98.1304 213.891 98.1304C211.622 98.1304 209.783 96.2909 209.783 94.0217V77.3913C209.783 75.8785 208.556 74.6522 207.043 74.6522C205.531 74.6522 204.304 75.8785 204.304 77.3913V108.043C204.304 114.095 199.399 119 193.348 119C187.297 119 182.391 114.095 182.391 108.043V66.9565C182.391 65.4437 181.165 64.2174 179.652 64.2174Z" fill="white"/>
<g clip-path="url(#clip4_979_5239)">
<g filter="url(#filter5_d_979_5239)">
<circle cx="271" cy="88.2" r="14" fill="white"/>
</g>
<path d="M271 90C269.896 90 269 89.1048 269 88C269 86.8956 269.896 86 271 86" stroke="#005666" stroke-miterlimit="10" stroke-linecap="round" stroke-linejoin="round"/>
<path d="M271 90C272.104 90 273 89.1048 273 88C273 86.8956 272.104 86 271 86" stroke="#005666" stroke-miterlimit="10" stroke-linecap="round" stroke-linejoin="round"/>
<path d="M272.304 81.9692L272.738 83.4051C272.883 83.9795 273.463 84.2667 273.897 84.1231L275.346 83.8359C276.65 83.5487 277.519 85.1282 276.65 86.1333L275.636 87.282C275.201 87.7128 275.201 88.2871 275.636 88.7179L276.65 89.8666C277.519 90.8718 276.65 92.4513 275.346 92.1641L273.897 91.8769C273.318 91.7333 272.883 92.0205 272.738 92.5949L272.304 94.0308C271.869 95.3231 270.131 95.3231 269.696 94.0308L269.262 92.5949C269.117 92.0205 268.537 91.7333 268.103 91.8769L266.654 92.1641C265.35 92.4513 264.481 90.8718 265.35 89.8666L266.364 88.7179C266.799 88.2871 266.799 87.7128 266.364 87.282L265.35 86.1333C264.481 85.1282 265.35 83.5487 266.654 83.8359L268.103 84.1231C268.682 84.2667 269.117 83.9795 269.262 83.4051L269.696 81.9692C270.131 80.6769 272.014 80.6769 272.304 81.9692Z" stroke="#005666" stroke-miterlimit="10" stroke-linecap="round" stroke-linejoin="round"/>
</g>
<defs>
<filter id="filter0_d_979_5239" x="45" y="104" width="80" height="80" filterUnits="userSpaceOnUse" color-interpolation-filters="sRGB">
<feFlood flood-opacity="0" result="BackgroundImageFix"/>
<feColorMatrix in="SourceAlpha" type="matrix" values="0 0 0 0 0 0 0 0 0 0 0 0 0 0 0 0 0 0 127 0" result="hardAlpha"/>
<feOffset dy="4"/>
<feGaussianBlur stdDeviation="10"/>
<feComposite in2="hardAlpha" operator="out"/>
<feColorMatrix type="matrix" values="0 0 0 0 0.08 0 0 0 0 0.12 0 0 0 0 0.113333 0 0 0 0.1 0"/>
<feBlend mode="normal" in2="BackgroundImageFix" result="effect1_dropShadow_979_5239"/>
<feBlend mode="normal" in="SourceGraphic" in2="effect1_dropShadow_979_5239" result="shape"/>
</filter>
<filter id="filter1_d_979_5239" x="0" y="52" width="80" height="80" filterUnits="userSpaceOnUse" color-interpolation-filters="sRGB">
<feFlood flood-opacity="0" result="BackgroundImageFix"/>
<feColorMatrix in="SourceAlpha" type="matrix" values="0 0 0 0 0 0 0 0 0 0 0 0 0 0 0 0 0 0 127 0" result="hardAlpha"/>
<feOffset dy="4"/>
<feGaussianBlur stdDeviation="10"/>
<feComposite in2="hardAlpha" operator="out"/>
<feColorMatrix type="matrix" values="0 0 0 0 0.08 0 0 0 0 0.12 0 0 0 0 0.113333 0 0 0 0.1 0"/>
<feBlend mode="normal" in2="BackgroundImageFix" result="effect1_dropShadow_979_5239"/>
<feBlend mode="normal" in="SourceGraphic" in2="effect1_dropShadow_979_5239" result="shape"/>
</filter>
<filter id="filter2_d_979_5239" x="45" y="0" width="80" height="80" filterUnits="userSpaceOnUse" color-interpolation-filters="sRGB">
<feFlood flood-opacity="0" result="BackgroundImageFix"/>
<feColorMatrix in="SourceAlpha" type="matrix" values="0 0 0 0 0 0 0 0 0 0 0 0 0 0 0 0 0 0 127 0" result="hardAlpha"/>
<feOffset dy="4"/>
<feGaussianBlur stdDeviation="10"/>
<feComposite in2="hardAlpha" operator="out"/>
<feColorMatrix type="matrix" values="0 0 0 0 0.08 0 0 0 0 0.12 0 0 0 0 0.113333 0 0 0 0.1 0"/>
<feBlend mode="normal" in2="BackgroundImageFix" result="effect1_dropShadow_979_5239"/>
<feBlend mode="normal" in="SourceGraphic" in2="effect1_dropShadow_979_5239" result="shape"/>
</filter>
<filter id="filter3_d_979_5239" x="290" y="52" width="80" height="80" filterUnits="userSpaceOnUse" color-interpolation-filters="sRGB">
<feFlood flood-opacity="0" result="BackgroundImageFix"/>
<feColorMatrix in="SourceAlpha" type="matrix" values="0 0 0 0 0 0 0 0 0 0 0 0 0 0 0 0 0 0 127 0" result="hardAlpha"/>
<feOffset dy="4"/>
<feGaussianBlur stdDeviation="10"/>
<feComposite in2="hardAlpha" operator="out"/>
<feColorMatrix type="matrix" values="0 0 0 0 0.08 0 0 0 0 0.12 0 0 0 0 0.113333 0 0 0 0.1 0"/>
<feBlend mode="normal" in2="BackgroundImageFix" result="effect1_dropShadow_979_5239"/>
<feBlend mode="normal" in="SourceGraphic" in2="effect1_dropShadow_979_5239" result="shape"/>
</filter>
<filter id="filter4_d_979_5239" x="279" y="108" width="80" height="80" filterUnits="userSpaceOnUse" color-interpolation-filters="sRGB">
<feFlood flood-opacity="0" result="BackgroundImageFix"/>
<feColorMatrix in="SourceAlpha" type="matrix" values="0 0 0 0 0 0 0 0 0 0 0 0 0 0 0 0 0 0 127 0" result="hardAlpha"/>
<feOffset dy="4"/>
<feGaussianBlur stdDeviation="10"/>
<feComposite in2="hardAlpha" operator="out"/>
<feColorMatrix type="matrix" values="0 0 0 0 0.08 0 0 0 0 0.12 0 0 0 0 0.113333 0 0 0 0.1 0"/>
<feBlend mode="normal" in2="BackgroundImageFix" result="effect1_dropShadow_979_5239"/>
<feBlend mode="normal" in="SourceGraphic" in2="effect1_dropShadow_979_5239" result="shape"/>
</filter>
<filter id="filter5_d_979_5239" x="237" y="58.2" width="68" height="68" filterUnits="userSpaceOnUse" color-interpolation-filters="sRGB">
<feFlood flood-opacity="0" result="BackgroundImageFix"/>
<feColorMatrix in="SourceAlpha" type="matrix" values="0 0 0 0 0 0 0 0 0 0 0 0 0 0 0 0 0 0 127 0" result="hardAlpha"/>
<feOffset dy="4"/>
<feGaussianBlur stdDeviation="10"/>
<feComposite in2="hardAlpha" operator="out"/>
<feColorMatrix type="matrix" values="0 0 0 0 0.08 0 0 0 0 0.12 0 0 0 0 0.113333 0 0 0 0.1 0"/>
<feBlend mode="normal" in2="BackgroundImageFix" result="effect1_dropShadow_979_5239"/>
<feBlend mode="normal" in="SourceGraphic" in2="effect1_dropShadow_979_5239" result="shape"/>
</filter>
<linearGradient id="paint0_linear_979_5239" x1="180.351" y1="81.0833" x2="259.452" y2="154.988" gradientUnits="userSpaceOnUse">
<stop stop-color="#A4AEAB"/>
<stop offset="1" stop-color="#F3F7F6" stop-opacity="0"/>
</linearGradient>
<linearGradient id="paint1_linear_979_5239" x1="187" y1="32" x2="187" y2="144" gradientUnits="userSpaceOnUse">
<stop stop-color="#00D5FF"/>
<stop offset="1" stop-color="#0DF2F2"/>
</linearGradient>
<clipPath id="clip0_979_5239">
<rect width="17.1429" height="17.1429" fill="white" transform="translate(76.4286 130.714)"/>
</clipPath>
<clipPath id="clip1_979_5239">
<rect width="17.1429" height="17.1429" fill="white" transform="translate(31.4286 79.4286)"/>
</clipPath>
<clipPath id="clip2_979_5239">
<rect width="20" height="20" fill="white" transform="translate(75 24.5714)"/>
</clipPath>
<clipPath id="clip3_979_5239">
<rect width="17.1429" height="17.1429" fill="white" transform="translate(321.429 78.7144)"/>
</clipPath>
<clipPath id="clip4_979_5239">
<rect width="56" height="56" fill="white" transform="translate(243 63)"/>
</clipPath>
</defs>
</svg>
