<svg width="102" height="20" viewBox="0 0 102 20" fill="none" xmlns="http://www.w3.org/2000/svg">
<g id="Logo">
<path id="Vector 1 (Stroke)" fill-rule="evenodd" clip-rule="evenodd" d="M7.85553 2.6087C7.37347 2.6087 6.98269 2.99801 6.98269 3.47826V13.2091C6.98269 15.1301 5.41956 16.6874 3.49135 16.6874C1.56313 16.6874 0 15.1301 0 13.2091V7.92961C0 7.20923 0.586173 6.62526 1.30926 6.62526C2.03234 6.62526 2.61851 7.20923 2.61851 7.92961V13.2091C2.61851 13.6894 3.00929 14.0787 3.49135 14.0787C3.9734 14.0787 4.36418 13.6894 4.36418 13.2091V3.47826C4.36418 1.55727 5.92731 0 7.85553 0C9.78375 0 11.3469 1.55727 11.3469 3.47826V16.5217C11.3469 17.002 11.7377 17.3913 12.2197 17.3913C12.7018 17.3913 13.0926 17.002 13.0926 16.5217V6.79089C13.0926 4.8699 14.6557 3.31263 16.5839 3.31263C18.5121 3.31263 20.0752 4.8699 20.0752 6.79089V12.0704C20.0752 12.7908 19.4891 13.3747 18.766 13.3747C18.0429 13.3747 17.4567 12.7908 17.4567 12.0704V6.79089C17.4567 6.31064 17.066 5.92132 16.5839 5.92132C16.1018 5.92132 15.7111 6.31064 15.7111 6.79089V16.5217C15.7111 18.4427 14.1479 20 12.2197 20C10.2915 20 8.72837 18.4427 8.72837 16.5217V3.47826C8.72837 2.99801 8.33758 2.6087 7.85553 2.6087Z" fill="url(#paint0_linear_4144_22150)"/>
<g id="type">
<path id="type &#60;CompoundPathItem&#62;" d="M37.3251 15.0402H35.4606C35.0219 15.0402 34.7843 14.7315 34.7843 14.3139V9.70164C34.7843 8.66667 34.1628 7.94028 33.0295 7.94028C32.1157 7.94028 31.4211 8.46698 31.0006 9.17508V14.7315C31.0034 14.7698 30.9985 14.8082 30.9862 14.8445C30.9739 14.8809 30.9544 14.9144 30.9288 14.9431C30.9033 14.9719 30.8722 14.9953 30.8375 15.012C30.8027 15.0286 30.765 15.0382 30.7264 15.0402H28.6609C28.6205 15.0417 28.5803 15.0346 28.5429 15.0193C28.5055 15.0041 28.4718 14.9811 28.4441 14.9518C28.4164 14.9226 28.3954 14.8878 28.3823 14.8498C28.3693 14.8118 28.3646 14.7715 28.3685 14.7315V6.07004C28.3666 5.99552 28.3943 5.92323 28.4456 5.86884C28.4969 5.81446 28.5677 5.78236 28.6427 5.77951H30.7264C30.7648 5.77632 30.8035 5.78181 30.8395 5.79556C30.8755 5.80931 30.9079 5.83097 30.9342 5.85891C30.9606 5.88685 30.9803 5.92036 30.9918 5.95692C31.0033 5.99348 31.0063 6.03216 31.0006 6.07004V7.17767C31.6405 6.37874 32.6091 5.65234 34.0531 5.65234C35.8994 5.65234 37.4166 6.83265 37.4166 9.10242V13.3515C37.4124 13.789 37.4429 14.2262 37.5079 14.6589C37.5445 14.8587 37.4714 15.0402 37.3251 15.0402Z" fill="#042A31"/>
<path id="type &#60;CompoundPathItem&#62;_2" d="M38.3573 10.4398C38.3573 7.58893 40.5323 5.66406 43.2925 5.66406C46.0343 5.66406 48.2095 7.58893 48.2095 10.4398C48.2095 13.2724 46.0343 15.1972 43.2925 15.1972C40.5323 15.1972 38.3573 13.2724 38.3573 10.4398ZM45.7966 10.4398C45.7966 8.96892 44.7549 7.87946 43.2925 7.87946C41.8119 7.87946 40.7699 8.96892 40.7699 10.4398C40.7699 11.9106 41.8119 12.9819 43.2925 12.9819C44.7549 12.9819 45.7966 11.9106 45.7966 10.4398Z" fill="#042A31"/>
<path id="type &#60;CompoundPathItem&#62;_3" d="M56.2423 1.68756L55.5111 2.95867C55.4978 2.99722 55.4759 3.03232 55.4472 3.06139C55.4185 3.09047 55.3835 3.11279 55.345 3.12671C55.3064 3.14063 55.2652 3.14581 55.2244 3.14186C55.1836 3.13791 55.1441 3.12493 55.109 3.10388C54.7856 2.88409 54.4041 2.76406 54.0123 2.75886C53.3908 2.75886 52.5864 3.08572 52.5864 4.30234V5.79134H54.6704C54.7009 5.79079 54.7312 5.79667 54.7593 5.80859C54.7874 5.82051 54.8126 5.83819 54.8333 5.86049C54.854 5.88279 54.8697 5.90919 54.8794 5.93795C54.8891 5.96672 54.8926 5.99719 54.8896 6.02738V7.9159C54.8907 7.94481 54.8858 7.97364 54.8752 8.00058C54.8646 8.02753 54.8485 8.052 54.8279 8.07246C54.8074 8.09292 54.7827 8.10893 54.7556 8.11948C54.7285 8.13004 54.6995 8.1349 54.6704 8.13377H52.5864V14.7615C52.59 14.8006 52.5849 14.8399 52.5715 14.8768C52.5581 14.9136 52.5367 14.9471 52.5088 14.9748C52.4809 15.0025 52.4472 15.0238 52.4101 15.0372C52.373 15.0505 52.3334 15.0556 52.2941 15.052H50.2467C50.2074 15.0556 50.1678 15.0505 50.1307 15.0372C50.0936 15.0238 50.0599 15.0026 50.032 14.9748C50.0041 14.9471 49.9827 14.9136 49.9693 14.8768C49.9559 14.8399 49.9508 14.8006 49.9544 14.7615V8.13377H48.8577C48.8276 8.13524 48.7976 8.13075 48.7693 8.12055C48.741 8.11035 48.715 8.09465 48.6929 8.07436C48.6708 8.05408 48.6529 8.02962 48.6404 8.00241C48.6279 7.9752 48.621 7.94579 48.6201 7.9159V6.02738C48.6191 5.99611 48.6245 5.96497 48.6361 5.93587C48.6477 5.90678 48.6652 5.88035 48.6874 5.85823C48.7097 5.83611 48.7363 5.81876 48.7656 5.80725C48.7949 5.79575 48.8262 5.79033 48.8577 5.79134H49.9544V3.99363C49.9544 1.68754 51.435 0.43457 53.4821 0.43457C54.5057 0.43457 55.5111 0.743274 56.1326 1.23363C56.2013 1.28473 56.2498 1.35806 56.2698 1.44094C56.2899 1.52382 56.2801 1.61105 56.2423 1.68756V1.68756Z" fill="#042A31"/>
<path id="type &#60;CompoundPathItem&#62;_4" d="M63.3248 6.77234L62.4291 8.22487C62.409 8.2598 62.3821 8.2904 62.35 8.31486C62.3178 8.33932 62.2811 8.35715 62.2419 8.36731C62.2027 8.37747 62.1619 8.37974 62.1218 8.374C62.0818 8.36826 62.0433 8.35462 62.0086 8.33388C61.6287 8.08304 61.185 7.94452 60.729 7.93446C59.9065 7.93446 59.3215 8.4247 58.9742 9.13281V14.7438C58.977 14.782 58.9721 14.8204 58.9598 14.8567C58.9475 14.8931 58.928 14.9266 58.9025 14.9554C58.8769 14.9841 58.8459 15.0075 58.8111 15.0242C58.7763 15.0409 58.7386 15.0505 58.7 15.0524H56.6346C56.5942 15.0539 56.554 15.0468 56.5166 15.0316C56.4792 15.0163 56.4455 14.9933 56.4179 14.9641C56.3902 14.9348 56.3691 14.9 56.3561 14.862C56.343 14.824 56.3383 14.7837 56.3423 14.7438V6.08227C56.3403 6.00775 56.368 5.93546 56.4193 5.88107C56.4706 5.82668 56.5415 5.79459 56.6165 5.79174H58.7001C58.7386 5.78855 58.7772 5.79404 58.8132 5.80779C58.8492 5.82154 58.8816 5.8432 58.908 5.87114C58.9343 5.89908 58.954 5.93259 58.9655 5.96915C58.977 6.00571 58.98 6.04439 58.9743 6.08227V7.0447C59.5592 6.28198 60.3818 5.66457 61.4785 5.66457C62.1052 5.6522 62.7153 5.86499 63.1967 6.26381C63.398 6.42732 63.4527 6.57251 63.3248 6.77234Z" fill="#042A31"/>
<path id="type &#60;CompoundPathItem&#62;_5" d="M64.2656 1.86948C64.2686 1.51572 64.4126 1.17757 64.6661 0.929118C64.9196 0.680662 65.2619 0.542162 65.618 0.543963C65.8838 0.545714 66.143 0.625712 66.363 0.773839C66.583 0.921966 66.7538 1.13157 66.8538 1.37614C66.9539 1.62071 66.9787 1.88926 66.9251 2.14783C66.8715 2.4064 66.7419 2.64337 66.5527 2.82878C66.3636 3.01419 66.1233 3.1397 65.8623 3.18945C65.6013 3.23919 65.3313 3.21094 65.0865 3.10825C64.8417 3.00557 64.633 2.83307 64.4869 2.61256C64.3408 2.39206 64.2637 2.13346 64.2656 1.86948V1.86948ZM64.3021 14.7619V6.08225C64.3001 6.04357 64.3062 6.00488 64.3201 5.9687C64.3341 5.93252 64.3555 5.89966 64.3831 5.87226C64.4107 5.84486 64.4438 5.82353 64.4802 5.80965C64.5166 5.79578 64.5555 5.78967 64.5945 5.79172H66.6418C66.6804 5.79122 66.7186 5.7984 66.7543 5.81282C66.79 5.82725 66.8225 5.84863 66.8497 5.87571C66.877 5.90279 66.8985 5.93502 66.913 5.97049C66.9275 6.00597 66.9347 6.04397 66.9342 6.08225V14.7619C66.9347 14.8002 66.9275 14.8382 66.913 14.8736C66.8985 14.9091 66.8769 14.9413 66.8497 14.9684C66.8224 14.9955 66.79 15.0169 66.7543 15.0313C66.7186 15.0457 66.6804 15.0529 66.6418 15.0524H64.5945C64.5555 15.0545 64.5166 15.0484 64.4802 15.0345C64.4438 15.0206 64.4107 14.9993 64.3831 14.9719C64.3556 14.9445 64.3341 14.9116 64.3201 14.8755C64.3062 14.8393 64.3 14.8006 64.3021 14.7619H64.3021Z" fill="#042A31"/>
<path id="type &#60;CompoundPathItem&#62;_6" d="M76.722 15.0525H74.547C74.3822 15.0525 74.3091 14.998 74.2178 14.8346L72.5543 12.3106L70.8911 14.8346C70.8639 14.9028 70.8156 14.9606 70.7531 14.9998C70.6907 15.0389 70.6174 15.0574 70.5438 15.0525H68.3685C68.3194 15.045 68.2731 15.0249 68.2342 14.9942C68.1952 14.9635 68.165 14.9233 68.1466 14.8774C68.1281 14.8316 68.122 14.7817 68.1289 14.7328C68.1357 14.6839 68.1553 14.6376 68.1857 14.5986L71.1469 10.4039L68.2041 6.24572C68.1723 6.20571 68.152 6.15786 68.1455 6.10729C68.139 6.05673 68.1465 6.00536 68.1672 5.9587C68.1879 5.91204 68.2209 5.87185 68.2628 5.84244C68.3047 5.81303 68.3539 5.79551 68.4051 5.79176H70.562C70.6384 5.78426 70.7152 5.80139 70.7811 5.84063C70.8469 5.87986 70.8983 5.93912 70.9277 6.00963L72.5543 8.49738L74.1812 6.00963C74.2084 5.94146 74.2567 5.88364 74.3191 5.84448C74.3816 5.80533 74.4549 5.78687 74.5285 5.79176H76.722C76.923 5.79176 77.0327 6.04596 76.9048 6.24572L73.962 10.404L76.923 14.5986C76.9567 14.638 76.9785 14.6861 76.9861 14.7373C76.9936 14.7885 76.9864 14.8407 76.9655 14.8881C76.9445 14.9354 76.9105 14.9759 76.8675 15.005C76.8244 15.0341 76.774 15.0505 76.722 15.0525V15.0525Z" fill="#042A31"/>
<path id="type &#60;CompoundPathItem&#62;_7" d="M78.1378 1.86948C78.1408 1.51572 78.2849 1.17757 78.5384 0.929117C78.7919 0.680662 79.1342 0.542162 79.4903 0.543963C79.7561 0.545717 80.0153 0.625717 80.2353 0.773846C80.4553 0.921975 80.6261 1.13158 80.7261 1.37615C80.8262 1.62072 80.851 1.88927 80.7974 2.14784C80.7438 2.40641 80.6142 2.64338 80.425 2.82879C80.2358 3.01419 79.9956 3.13971 79.7346 3.18945C79.4736 3.23919 79.2036 3.21094 78.9588 3.10825C78.714 3.00557 78.5053 2.83306 78.3592 2.61256C78.213 2.39206 78.136 2.13346 78.1378 1.86948V1.86948ZM78.1744 14.7619V6.08225C78.1723 6.04356 78.1785 6.00487 78.1924 5.96869C78.2064 5.93251 78.2278 5.89965 78.2554 5.87225C78.283 5.84485 78.3161 5.82352 78.3525 5.80965C78.3889 5.79577 78.4278 5.78967 78.4668 5.79172H80.5141C80.5527 5.79123 80.5909 5.7984 80.6266 5.81283C80.6623 5.82725 80.6948 5.84864 80.722 5.87572C80.7493 5.9028 80.7708 5.93502 80.7853 5.9705C80.7998 6.00597 80.807 6.04397 80.8065 6.08225V14.7619C80.807 14.8002 80.7998 14.8382 80.7853 14.8736C80.7707 14.9091 80.7492 14.9413 80.722 14.9684C80.6947 14.9955 80.6623 15.0169 80.6266 15.0313C80.5909 15.0457 80.5527 15.0529 80.5141 15.0524H78.4668C78.4278 15.0545 78.3889 15.0484 78.3525 15.0345C78.3161 15.0206 78.283 14.9993 78.2554 14.9719C78.2279 14.9445 78.2064 14.9116 78.1924 14.8754C78.1785 14.8393 78.1723 14.8006 78.1744 14.7619V14.7619Z" fill="#042A31"/>
<path id="type &#60;CompoundPathItem&#62;_8" d="M81.9854 10.4398C81.9854 7.58893 84.1604 5.66406 86.9205 5.66406C89.6623 5.66406 91.8375 7.58893 91.8375 10.4398C91.8375 13.2724 89.6623 15.1972 86.9205 15.1972C84.1604 15.1972 81.9854 13.2724 81.9854 10.4398ZM89.4247 10.4398C89.4247 8.96892 88.383 7.87946 86.9205 7.87946C85.4399 7.87946 84.398 8.96892 84.398 10.4398C84.398 11.9106 85.4399 12.9819 86.9205 12.9819C88.383 12.9819 89.4247 11.9106 89.4247 10.4398Z" fill="#042A31"/>
<path id="type &#60;CompoundPathItem&#62;_9" d="M101.808 15.0519H99.9433C99.5046 15.0519 99.267 14.7432 99.267 14.3257V9.71336C99.267 8.67839 98.6455 7.952 97.5122 7.952C96.5984 7.952 95.9038 8.47869 95.4833 9.1868V14.7432C95.4861 14.7815 95.4812 14.8199 95.4689 14.8562C95.4566 14.8926 95.4371 14.9261 95.4115 14.9548C95.386 14.9836 95.3549 15.007 95.3202 15.0236C95.2854 15.0403 95.2477 15.0499 95.2092 15.0519H93.1436C93.1032 15.0534 93.063 15.0463 93.0256 15.031C92.9882 15.0158 92.9545 14.9928 92.9268 14.9635C92.8991 14.9343 92.8781 14.8995 92.865 14.8615C92.852 14.8235 92.8473 14.7832 92.8512 14.7432V6.08176C92.8493 6.00724 92.8769 5.93495 92.9283 5.88056C92.9796 5.82617 93.0504 5.79408 93.1254 5.79123H95.2092C95.2476 5.78804 95.2862 5.79353 95.3222 5.80728C95.3582 5.82103 95.3906 5.84268 95.417 5.87063C95.4433 5.89857 95.463 5.93208 95.4745 5.96864C95.486 6.0052 95.489 6.04388 95.4833 6.08176V7.18939C96.123 6.39046 97.0918 5.66406 98.5359 5.66406C100.382 5.66406 101.899 6.84437 101.899 9.11414V13.3632C101.895 13.8007 101.926 14.2379 101.991 14.6706C102.027 14.8704 101.954 15.0519 101.808 15.0519Z" fill="#042A31"/>
</g>
</g>
<defs>
<linearGradient id="paint0_linear_4144_22150" x1="3.61208" y1="10" x2="16.3313" y2="10" gradientUnits="userSpaceOnUse">
<stop stop-color="#04E2B6"/>
<stop offset="1" stop-color="#00D3FF"/>
</linearGradient>
</defs>
</svg>
