<svg width="656" height="145" viewBox="0 0 656 145" fill="none"
    xmlns="http://www.w3.org/2000/svg">
    <path d="M0 103.751L82.4258 103.751C108.402 103.751 129.46 82.6931 129.46 56.7166V25.1817C129.46 16.6215 136.4 9.68203 144.96 9.68203V9.68203C153.52 9.68203 160.46 16.6215 160.46 25.1817L160.46 115.793C160.46 123.787 166.94 130.267 174.934 130.267V130.267C182.927 130.267 189.408 123.787 189.408 115.793L189.408 66.3325C189.408 57.7094 196.398 50.7189 205.021 50.7189V50.7189C213.644 50.7189 220.635 57.7093 220.635 66.3325V83.1303C220.635 90.6834 226.758 96.8064 234.311 96.8064V96.8064C241.864 96.8064 247.987 90.6834 247.987 83.1303V31.0657C247.987 23.3237 254.263 17.0476 262.005 17.0476V17.0476C269.747 17.0476 276.023 23.3237 276.023 31.0657V126.754C276.023 134.622 282.401 141 290.269 141V141C298.137 141 304.515 134.622 304.515 126.754V59.3354C304.515 51.0898 311.2 44.4055 319.445 44.4055V44.4055C327.691 44.4055 334.375 51.0898 334.375 59.3354V111.479C334.375 120.229 341.467 127.321 350.216 127.321V127.321C358.966 127.321 366.058 120.229 366.058 111.479V17.4482C366.058 10.021 372.079 4 379.506 4V4C386.933 4 392.954 10.021 392.954 17.4482V107.384C392.954 114.559 398.771 120.376 405.947 120.376V120.376C413.122 120.376 418.939 114.559 418.939 107.384V48.892C418.939 40.8354 425.47 34.3041 433.527 34.3041V34.3041C441.584 34.3041 448.115 40.8354 448.115 48.892V67.7243C448.115 76.3475 455.105 83.3379 463.729 83.3379V83.3379C472.352 83.3379 479.342 76.3475 479.342 67.7243V34.7048C479.342 27.2775 485.363 21.2565 492.791 21.2565V21.2565C500.218 21.2565 506.239 27.2775 506.239 34.7048V79.8156C506.239 86.9911 512.056 92.808 519.231 92.808V92.808C526.407 92.808 532.223 86.9911 532.223 79.8156V74.1836C532.223 63.8976 540.562 55.5591 550.848 55.5591L655.5 55.5591" stroke="#F0F5F4" stroke-width="8"/>
</svg>