<svg width="1328" height="253" viewBox="0 0 1328 253" fill="none" xmlns="http://www.w3.org/2000/svg">
<mask id="mask0_8114_35116" style="mask-type:alpha" maskUnits="userSpaceOnUse" x="0" y="0" width="1328" height="253">
<rect width="1328" height="253" fill="url(#paint0_linear_8114_35116)"/>
</mask>
<g mask="url(#mask0_8114_35116)">
<mask id="mask1_8114_35116" style="mask-type:luminance" maskUnits="userSpaceOnUse" x="840" y="44" width="102" height="83">
<path d="M935.768 44.8366L840.727 52.4492L846.677 126.733L941.718 119.121L935.768 44.8366Z" fill="white"/>
</mask>
<g mask="url(#mask1_8114_35116)">
<path fill-rule="evenodd" clip-rule="evenodd" d="M934.893 78.4852C936.041 78.3932 937.148 78.696 937.977 79.1677L937.77 76.5902C937.153 76.3447 935.833 76.0814 934.151 76.2162C930.027 76.5465 928.53 79.1385 928.78 82.2593L929.943 96.7791L934.051 96.45L933.169 85.4343L936.068 85.2022L935.881 82.8741L932.984 83.1061L932.837 81.2704C932.717 79.7691 933.461 78.5823 934.893 78.4734M919.102 83.6337C921.318 83.4414 922.42 85.3353 922.794 89.4703C923.164 93.5555 922.372 95.4899 920.066 95.6746C917.76 95.8593 916.724 94.0713 916.397 89.9827C916.053 85.6947 916.801 83.8317 919.102 83.6337ZM920.28 97.9996C924.173 97.6878 927.625 95.1615 927.119 89.115C926.602 83.0329 923.143 80.9402 918.943 81.3101C914.929 81.6512 911.568 84.2419 912.065 90.3208C912.572 96.3969 916.396 98.3107 920.28 97.9996ZM865.433 97.4054C865.285 95.566 866.993 94.4966 868.768 93.8409L870.803 93.1496L871.198 98.0856C870.721 98.5941 869.452 99.3943 868.032 99.508C866.503 99.6305 865.563 98.9373 865.433 97.4054ZM871.677 100.315L872.048 101.399L875.915 101.089C875.667 100.475 875.403 99.2981 875.285 97.8144L874.656 89.9638C874.285 85.3377 870.76 85.1871 867.689 85.4331C862.46 85.852 861.28 88.7677 861.449 90.8779L865.205 90.5702C865.068 88.7682 866.387 87.7182 867.926 87.595C869.195 87.4933 870.397 87.9676 870.56 89.9987L870.639 90.9908L865.875 92.5362C862.949 93.4788 860.985 95.1115 861.246 98.1461C861.495 101.142 863.694 102.55 866.765 102.304C869.536 102.078 871.181 100.72 871.668 100.332M851.206 100.866L849.746 100.983L849.166 93.7467L850.626 93.6297C852.888 93.4425 854.571 94.3633 854.804 96.7812C855.013 99.208 853.899 100.651 851.206 100.866ZM848.525 85.7376L849.641 85.6482C851.53 85.49 853.153 85.9571 853.324 88.1291C853.492 90.2818 852.226 91.2714 850.087 91.4399L848.998 91.5271L848.534 85.7271L848.525 85.7376ZM859.548 96.6964C859.263 93.1327 855.922 91.9768 853.809 92.0409C855.881 91.4194 857.977 90.1607 857.738 87.1853C857.49 84.0908 854.885 83.0306 852.088 83.2476L843.91 83.9027L845.483 103.544L852.78 102.96C856.701 102.658 859.858 100.559 859.548 96.6964Z" fill="#94ACB8"/>
<path fill-rule="evenodd" clip-rule="evenodd" d="M886.951 90.1104L887.756 100.16L891.831 99.8339L891.009 89.5708C890.806 87.0296 890.085 83.6286 885.488 83.9969C883.329 84.1697 881.582 85.5197 880.997 85.9581L880.903 84.7853L876.826 85.1118L878.092 100.924L882.169 100.598L881.195 88.4388C881.8 87.874 882.896 86.9371 884.197 86.8329C886.197 86.6727 886.772 87.8072 886.95 90.1007M892.814 79.9682L894.388 99.6192L898.49 99.2906L896.916 79.6494L892.814 79.9682Z" fill="#94ACB8"/>
<path fill-rule="evenodd" clip-rule="evenodd" d="M901.953 89.3339L906.639 82.7337L903.124 83.0152L897.772 90.434L903.059 98.9347L908.108 98.5303L901.953 89.3339ZM868.436 114.148C868.484 112.26 868.851 109.704 871.222 109.502C873.59 109.312 874.404 111.718 874.668 113.649L868.436 114.148ZM871.037 107.189C866.871 107.528 863.728 110.401 864.158 115.942C864.663 122.365 868.255 124.21 872.374 123.88C875.617 123.62 878.67 121.953 879.167 117.507L874.894 117.84C874.814 119.912 874.164 121.395 872.187 121.549C869.709 121.737 868.833 119.681 868.555 116.26L879.188 115.408C879.178 115.178 879.164 114.949 879.144 114.719C878.718 109.178 875.064 106.866 871.039 107.188L871.037 107.189ZM897.986 117.982C897.507 118.491 896.243 119.302 894.826 119.416C893.294 119.538 892.359 118.846 892.229 117.314C892.08 115.474 893.79 114.405 895.561 113.75L897.592 113.059L897.987 117.995L897.986 117.982ZM901.452 109.842C901.081 105.215 897.55 105.066 894.483 105.311C889.256 105.73 888.055 108.646 888.224 110.758L891.983 110.451C891.841 108.648 893.149 107.599 894.705 107.474C895.972 107.373 897.172 107.847 897.335 109.878L897.414 110.87L892.686 112.424C889.751 113.367 887.795 114.999 888.054 118.034C888.312 121.029 890.499 122.438 893.582 122.191C896.351 121.966 897.997 120.61 898.476 120.22L898.849 121.302L902.718 120.992C902.471 120.379 902.211 119.201 902.093 117.717L901.462 109.849L901.452 109.842ZM882.056 122.64L886.159 122.311L884.585 102.662L880.482 102.991L882.056 122.64ZM912.466 103.871C910.307 104.044 908.56 105.394 907.973 105.832L907.879 104.659L903.807 104.986L905.074 120.8L909.146 120.474L908.171 108.311C908.784 107.746 909.874 106.809 911.173 106.705C913.173 106.545 913.745 107.68 913.929 109.973L914.734 120.022L918.809 119.696L917.987 109.433C917.783 106.892 917.067 103.491 912.465 103.859M931.399 114.93C931.139 115.472 929.929 116.789 928.559 116.898C926.743 117.044 925.107 116.159 924.721 111.223C924.353 106.508 925.902 105.312 927.589 105.177C929.032 105.061 930.297 106.017 930.734 106.621L931.399 114.93ZM930.517 103.924C929.599 103.235 928.209 102.634 926.307 102.798C923.838 102.995 919.829 104.709 920.372 111.582C920.882 118.148 924.306 119.74 927.397 119.482C929.833 119.267 931.459 117.627 931.603 117.481L931.699 118.674L935.807 118.345L934.232 98.6856L930.124 99.0147L930.516 103.915L930.517 103.924ZM847.236 125.429L851.671 125.074L850.097 105.425L845.662 105.78L847.236 125.429ZM857.704 110.735L857.54 108.69L853.428 109.02L854.698 124.832L858.794 124.504L858.07 115.463C857.759 111.581 861.168 111.044 863.128 110.971L862.881 107.889C859.707 107.779 857.983 109.843 857.692 110.737M901.686 48.2211C901.924 51.1944 888.769 52.5747 889.026 55.7739L888.735 55.7972C888.478 52.598 875.271 53.3293 875.033 50.356L874.738 50.3796L874.987 53.4819C875.284 57.1884 888.46 55.7826 889.005 59.3255L889.296 59.3022C889.281 55.7169 902.502 54.9983 902.206 51.3017L901.958 48.1994L901.664 48.2229L901.686 48.2211ZM902.25 55.2625C902.488 58.2358 889.333 59.6161 889.59 62.8151L889.299 62.8384C889.042 59.6394 875.836 60.3706 875.598 57.3972L875.303 57.4209L875.552 60.5242C875.849 64.2306 889.026 62.8249 889.57 66.3678L889.861 66.3445C889.846 62.7591 903.067 62.0407 902.771 58.344L902.523 55.2407L902.229 55.2642L902.25 55.2625ZM902.814 62.3059C903.053 65.2792 889.898 66.6584 890.154 69.8585L889.863 69.8818C889.606 66.6817 876.401 67.4139 876.162 64.4406L875.867 64.4643L876.116 67.5676C876.413 71.2818 889.59 69.8682 890.134 73.4112L890.426 73.3878C890.41 69.8025 903.631 69.0839 903.335 65.3874L903.087 62.284L902.793 62.3076L902.814 62.3059Z" fill="#94ACB8"/>
</g>
<path d="M1092.47 135.096C1090.05 133.181 1087.24 132.375 1084.09 132.627C1080.99 132.876 1078.35 134.12 1076.26 136.395C1074.17 138.626 1073.25 141.572 1073.54 145.229C1073.84 148.885 1075.21 151.646 1077.63 153.561C1080.05 155.431 1082.86 156.239 1085.97 155.991C1089.11 155.738 1091.75 154.494 1093.84 152.263C1095.98 149.983 1096.89 147.038 1096.6 143.382C1096.31 139.725 1094.93 136.963 1092.47 135.096ZM1081.15 149.33C1079.87 148.222 1079.14 146.708 1078.99 144.793C1078.83 142.875 1079.3 141.267 1080.41 140.012C1081.5 138.714 1082.86 138.022 1084.51 137.889C1086.17 137.756 1087.66 138.22 1088.95 139.328C1090.28 140.388 1091 141.901 1091.15 143.818C1091.31 145.736 1090.84 147.344 1089.7 148.646C1088.6 149.9 1087.2 150.596 1085.54 150.729C1083.89 150.861 1082.44 150.394 1081.15 149.33Z" fill="#94ACB8"/>
<path d="M1105.53 153.793L1103.08 123.198L1097.72 123.627L1100.17 154.223L1105.53 153.793Z" fill="#94ACB8"/>
<path d="M1121.06 130.293L1122.04 142.501C1122.27 145.443 1120.91 147.514 1118.03 147.745C1115.09 147.98 1113.46 146.151 1113.22 143.207L1112.24 131L1106.87 131.43L1107.93 144.574C1108.33 149.666 1111.76 153.923 1118.48 153.385L1118.52 153.381C1125.2 152.847 1127.89 148 1127.49 143.007L1126.43 129.863L1121.06 130.293Z" fill="#94ACB8"/>
<path d="M1066.95 134.626L1062.79 150.036L1056.23 135.485L1050.53 135.941L1060.86 157.371L1065.88 156.969L1072.66 134.169L1066.95 134.626Z" fill="#94ACB8"/>
<path d="M1051.39 146.372C1051.14 143.162 1049.95 140.61 1047.87 138.668C1045.78 136.725 1043.24 135.898 1040.21 136.14C1037.11 136.389 1034.56 137.715 1032.57 140.073C1030.61 142.429 1029.77 145.277 1030.05 148.711C1030.32 152.145 1031.61 154.869 1033.87 156.886C1036.17 158.9 1038.81 159.766 1041.83 159.524C1046.47 159.153 1049.57 156.75 1051.22 152.265L1047.03 150.177C1045.93 153.002 1044.12 154.494 1041.53 154.702C1038.34 154.957 1035.91 152.998 1035.3 149.637L1051.55 148.335L1051.39 146.372ZM1040.38 140.434C1043.4 140.192 1045.55 141.814 1046.29 144.628L1034.97 145.534C1035.57 142.839 1037.62 140.655 1040.38 140.434Z" fill="#94ACB8"/>
<path d="M1030.93 159.768L1022.68 147.147C1027.09 145.044 1029.11 141.832 1028.75 137.417C1028.33 132.022 1023.96 128.915 1017.46 129.436L1004.74 130.455L1007.24 161.666L1012.85 161.216L1011.84 148.554L1016.61 148.172L1024.51 160.282L1030.93 159.768ZM1017.87 134.608C1021.19 134.342 1022.96 135.591 1023.18 138.31C1023.39 141.03 1021.84 142.544 1018.53 142.81L1011.42 143.379L1010.77 135.177L1017.87 134.608Z" fill="#94ACB8"/>
<path d="M1137.34 151.873C1133.89 152.15 1130.86 149.44 1130.57 145.819L1128.79 123.66L1134.15 123.231L1134.63 129.214L1139.23 128.846L1139.59 133.394L1135 133.762L1135.9 145.029C1135.98 146.091 1136.87 146.884 1137.89 146.803L1140.65 146.582L1141.05 151.576L1137.34 151.873Z" fill="#94ACB8"/>
<mask id="mask2_8114_35116" style="mask-type:luminance" maskUnits="userSpaceOnUse" x="1190" y="154" width="129" height="61">
<path d="M1314.44 154.687L1190.15 164.643L1194.18 214.946L1318.47 204.991L1314.44 154.687Z" fill="white"/>
</mask>
<g mask="url(#mask2_8114_35116)">
<path d="M1307.96 189.84L1202.14 198.317C1197.29 198.704 1193.06 195.109 1192.67 190.287L1191.35 173.802C1190.96 168.98 1194.58 164.756 1199.42 164.368L1305.25 155.892C1310.09 155.504 1314.32 159.099 1314.71 163.921L1316.03 180.406C1316.42 185.228 1312.81 189.452 1307.96 189.84Z" fill="#94ACB8"/>
<path d="M1213.74 210.71C1213.77 211.111 1213.72 211.387 1213.58 211.511C1213.47 211.616 1213.28 211.7 1213.01 211.755C1212.73 211.818 1212.24 211.875 1211.46 211.937L1207.85 212.226L1207.69 210.166L1211.3 209.877C1212.16 209.807 1212.7 209.782 1213.01 209.792C1213.16 209.798 1213.3 209.838 1213.43 209.918C1213.6 210.014 1213.7 210.289 1213.74 210.71ZM1212.95 208.431C1212.85 208.499 1212.49 208.626 1211.2 208.729L1207.6 209.018L1207.45 207.129L1211.05 206.84C1211.75 206.784 1212.25 206.762 1212.56 206.776C1212.71 206.778 1212.83 206.814 1212.93 206.88C1213.08 206.976 1213.17 207.225 1213.21 207.619C1213.24 208.028 1213.15 208.292 1212.95 208.431ZM1214.02 208.939C1214.17 208.818 1214.29 208.676 1214.36 208.518C1214.49 208.257 1214.53 207.89 1214.49 207.395C1214.45 206.951 1214.35 206.599 1214.18 206.352C1213.86 205.858 1213.32 205.606 1212.59 205.608C1212.2 205.607 1211.67 205.633 1210.96 205.69L1206.09 206.08L1206.68 213.477L1211.55 213.086C1212.17 213.037 1212.66 212.984 1213.05 212.921C1213.9 212.786 1214.45 212.56 1214.72 212.233C1214.99 211.907 1215.09 211.381 1215.03 210.623C1214.98 210.027 1214.85 209.606 1214.63 209.337C1214.48 209.152 1214.28 209.019 1214.02 208.939Z" fill="#94ACB8"/>
<path d="M1241.04 204.438L1243.36 207.882L1239.07 208.226L1240.85 204.454L1241.04 204.438ZM1239.98 203.366L1236.36 211.1L1237.8 210.984L1238.53 209.425L1244.09 208.98L1245.05 210.403L1246.47 210.29L1241.68 203.23L1239.98 203.366Z" fill="#94ACB8"/>
<path d="M1275.55 206.758L1268.83 201.055L1267.03 201.199L1267.63 208.596L1268.89 208.494L1268.4 202.324L1275.08 207.998L1276.91 207.852L1276.32 200.455L1275.05 200.557L1275.55 206.758Z" fill="#94ACB8"/>
<path d="M1301.38 202.084L1306.62 198.029L1304.37 198.209L1300.01 201.622L1298.99 201.705L1298.74 198.66L1297.48 198.762L1298.07 206.158L1299.33 206.057L1299.08 202.853L1300.1 202.771L1305.23 205.585L1307.49 205.403L1301.38 202.084Z" fill="#94ACB8"/>
<path d="M1203.04 172.088L1216.32 171.024L1216.54 173.719L1206.66 174.51L1207.06 179.468L1216.4 178.72L1216.61 181.414L1207.28 182.161L1207.89 189.786L1204.48 190.059L1203.04 172.088Z" fill="white"/>
<path d="M1224.89 188.423L1221.48 188.696L1220.04 170.725L1223.45 170.452L1224.89 188.423Z" fill="white"/>
<path d="M1229.24 188.075L1227.8 170.104L1232.02 169.765L1238.23 177.023C1239.84 178.909 1241.26 180.887 1242.41 182.755L1242.48 182.75C1242.03 180.372 1241.74 178.058 1241.52 175.312L1241.02 169.044L1244.41 168.773L1245.85 186.744L1242.04 187.049L1235.75 179.613C1234.21 177.749 1232.59 175.651 1231.37 173.71L1231.27 173.746C1231.62 176.052 1231.84 178.421 1232.07 181.381L1232.59 187.807L1229.24 188.075Z" fill="white"/>
<path d="M1261.93 177.814L1252.6 178.562L1252.99 183.493L1262.86 182.668L1263.08 185.395L1249.8 186.459L1248.36 168.486L1261.64 167.422L1261.85 170.118L1251.98 170.908L1252.38 175.86L1261.71 175.112L1261.93 177.814Z" fill="white"/>
<path d="M1295.19 180.331C1291.24 180.647 1287.88 178.835 1287.52 174.333C1287.16 169.832 1290.19 167.507 1294.14 167.191C1298.08 166.875 1301.52 169.561 1301.81 173.188C1302.1 176.817 1299.13 180.015 1295.19 180.331ZM1293.92 164.445C1288.09 164.912 1283.64 168.792 1284.11 174.606C1284.57 180.421 1289.58 183.544 1295.41 183.077C1301.24 182.61 1305.63 178.062 1305.22 172.915C1304.8 167.772 1299.75 163.979 1293.92 164.445Z" fill="white"/>
<path d="M1281.94 180.718C1280.75 181.238 1279.4 181.586 1277.95 181.702C1272.85 182.11 1268.56 180.385 1268.2 175.91C1267.84 171.436 1271.81 169.048 1276.9 168.64C1278.39 168.521 1279.81 168.66 1281.09 169.003L1281.69 166.204C1280.13 165.848 1278.44 165.716 1276.68 165.857C1269.7 166.416 1264.33 170.369 1264.79 176.183C1265.3 182.584 1270.4 185.109 1278.17 184.486C1279.9 184.348 1281.52 183.961 1282.98 183.381L1281.94 180.718Z" fill="white"/>
</g>
<g clip-path="url(#clip0_8114_35116)">
<mask id="mask3_8114_35116" style="mask-type:luminance" maskUnits="userSpaceOnUse" x="826" y="181" width="153" height="62">
<path d="M974.633 181.902L826.792 193.744L830.71 242.663L978.551 230.821L974.633 181.902Z" fill="white"/>
</mask>
<g mask="url(#mask3_8114_35116)">
<path d="M937.867 195.079C937.867 195.079 940.262 194.311 942.797 195.848C942.797 195.848 944.884 192.771 949.171 192.14C953.459 191.514 956.576 194.052 956.576 194.052C956.576 194.052 959.896 191.94 963.639 194.611L955.521 204.078C955.521 204.078 954.19 205.792 952.979 203.567C952.979 203.567 951.287 200.289 948.856 203.116L943.676 209.128C943.676 209.128 941.432 211.773 941.178 208.607L940.937 205.595C940.937 205.595 940.709 201.635 937.795 204.002L934.295 206.72C934.295 206.72 933.226 207.742 933.078 205.892L932.757 201.878C932.757 201.878 932.308 196.533 937.867 195.079Z" fill="#94ACB8"/>
<path d="M940.764 191.088C940.874 192.47 939.827 193.685 938.435 193.796C937.037 193.908 935.815 192.875 935.705 191.493C935.593 190.106 936.635 188.892 938.033 188.78C939.425 188.668 940.652 189.7 940.764 191.088Z" fill="#94ACB8"/>
<path d="M952.038 187.497C952.181 189.281 950.832 190.847 949.035 190.991C947.238 191.135 945.663 189.803 945.52 188.019C945.377 186.23 946.72 184.67 948.517 184.526C950.314 184.382 951.894 185.708 952.038 187.497Z" fill="#94ACB8"/>
<path d="M961.218 189.961C961.307 191.079 960.465 192.061 959.339 192.151C958.213 192.241 957.225 191.406 957.135 190.288C957.045 189.17 957.888 188.188 959.014 188.098C960.14 188.008 961.128 188.843 961.218 189.961Z" fill="#94ACB8"/>
<path d="M835.456 226.478C833.908 226.602 833.175 227.686 833.297 229.211L833.773 235.153C834.441 235.337 834.998 235.47 835.958 235.393C838.01 235.229 838.995 233.299 838.766 230.447C838.527 227.462 837.231 226.336 835.456 226.478ZM836.494 237.839C835.374 237.928 834.603 237.785 833.968 237.598L834.308 241.843L831.502 242.068L830.123 224.855L831.393 224.753C832.042 224.701 832.637 225.302 832.92 225.761C833.467 224.931 834.364 224.138 835.978 224.009C839.396 223.735 841.499 226.371 841.801 230.137C842.154 234.554 839.817 237.573 836.494 237.839Z" fill="#94ACB8"/>
<path d="M848.273 225.347C846.597 225.481 845.777 226.81 845.819 228.652L850.783 228.255C850.591 226.358 849.815 225.223 848.273 225.347ZM853.801 230.307L845.968 230.934C846.266 233.404 847.624 234.459 849.543 234.306C850.774 234.207 851.568 233.866 852.503 233.415C852.6 233.375 852.763 233.322 852.869 233.313C853.351 233.275 853.542 233.57 853.522 234.153L853.514 235.728C852.656 236.24 851.311 236.658 849.503 236.803C846.047 237.08 843.302 234.595 842.968 230.421C842.622 226.11 844.532 223.324 848.26 223.026C851.61 222.757 853.475 225.34 853.766 228.974C853.795 229.343 853.8 229.897 853.801 230.307Z" fill="#94ACB8"/>
<path d="M862.524 225.337C861.948 225.039 861.182 224.895 860.123 224.98C858.614 225.101 857.847 226.254 857.983 227.956L858.611 235.797L855.804 236.022L854.752 222.883L856.022 222.782C856.605 222.735 857.209 223.03 857.653 224.253C858.268 222.945 859.151 222.326 860.383 222.227C860.865 222.189 861.447 222.208 861.794 222.286C862.212 222.352 862.365 222.512 862.392 222.853L862.524 225.337Z" fill="#94ACB8"/>
<path d="M879.163 234.15L878.421 224.883C878.328 223.726 877.614 222.963 876.283 223.07C874.746 223.193 873.979 224.418 874.072 225.575L874.787 234.501L871.985 234.725L871.248 225.524C871.142 224.197 870.364 223.544 869.066 223.648C867.352 223.785 866.51 225.188 866.646 226.884L867.304 235.1L864.491 235.325L863.439 222.187L864.676 222.088C865.292 222.039 865.831 222.366 866.285 223.289C866.994 222.24 868.024 221.443 869.666 221.311C871.552 221.16 872.469 221.874 873.03 222.887C873.908 221.72 874.869 220.895 876.783 220.741C879.557 220.519 881.013 221.976 881.203 224.35L881.97 233.925L879.163 234.15Z" fill="#94ACB8"/>
<path d="M890.935 222.478C890.385 222.522 889.906 222.528 889.462 222.564C887.232 222.743 885.851 224.322 886.085 227.24C886.316 230.131 887.579 231.327 889.021 231.211C890.724 231.075 891.536 229.985 891.405 228.355L890.935 222.478ZM892.027 233.12L891.86 231.869C891.273 232.77 890.302 233.535 888.699 233.663C885.687 233.904 883.449 231.756 883.106 227.478C882.769 223.265 885.458 220.318 889.397 220.002C890.218 219.937 891.524 219.937 892.076 219.993C893.26 220.136 893.587 220.315 893.647 221.064L894.596 232.914L892.027 233.12Z" fill="#94ACB8"/>
<path d="M904.674 232.107L903.957 223.148C903.848 221.788 903.12 220.921 901.55 221.047C899.63 221.201 898.652 222.714 898.812 224.719L899.438 232.527L896.637 232.751L895.584 219.613L896.81 219.515C897.431 219.465 897.971 219.793 898.425 220.715C899.236 219.692 900.269 218.861 902.122 218.712C905.023 218.48 906.538 220.171 906.75 222.819L907.476 231.883L904.674 232.107Z" fill="#94ACB8"/>
<path d="M913.762 220.101C912.086 220.235 911.266 221.564 911.308 223.406L916.272 223.008C916.08 221.112 915.304 219.977 913.762 220.101ZM919.289 225.061L911.452 225.689C911.755 228.158 913.113 229.213 915.032 229.06C916.263 228.961 917.057 228.62 917.992 228.169C918.084 228.129 918.252 228.076 918.358 228.067C918.835 228.029 919.037 228.323 919.006 228.908L918.998 230.482C918.14 230.994 916.8 231.412 914.992 231.557C911.536 231.833 908.791 229.349 908.457 225.175C908.111 220.864 910.021 218.078 913.748 217.78C917.099 217.511 918.958 220.094 919.249 223.729C919.279 224.097 919.291 224.651 919.289 225.061Z" fill="#94ACB8"/>
<path d="M929.331 230.131L928.614 221.172C928.505 219.812 927.782 218.945 926.212 219.07C924.293 219.224 923.314 220.738 923.475 222.742L924.1 230.55L921.299 230.774L920.247 217.636L921.478 217.538C922.088 217.489 922.634 217.816 923.088 218.739C923.899 217.715 924.932 216.884 926.779 216.736C929.68 216.504 931.2 218.194 931.412 220.843L932.138 229.906L929.331 230.131Z" fill="#94ACB8"/>
<path d="M941.26 229.071C940.664 229.362 939.887 229.558 938.417 229.675C936.503 229.829 934.958 228.589 934.77 226.244L934.175 218.81L932.122 218.974L931.94 216.7L933.992 216.536L933.74 213.381L935.276 213.257C936.031 213.197 936.587 213.662 936.642 214.34L936.799 216.311L938.78 216.152C939.634 216.084 940.158 216.557 940.222 217.367L940.299 218.319L936.982 218.585L937.547 225.644C937.637 226.767 938.116 227.239 939.314 227.143C939.863 227.099 940.199 226.972 940.496 226.843C940.968 226.672 941.175 226.757 941.178 227.132L941.26 229.071Z" fill="#94ACB8"/>
<path d="M955.211 227.954C954.615 228.246 953.843 228.44 952.373 228.558C950.454 228.712 948.909 227.472 948.721 225.127L948.125 217.693L946.079 217.857L945.896 215.583L947.943 215.419L947.69 212.264L949.233 212.14C949.982 212.08 950.538 212.546 950.592 213.223L950.75 215.194L952.73 215.035C953.59 214.967 954.108 215.44 954.173 216.25L954.249 217.203L950.932 217.468L951.498 224.527C951.588 225.651 952.072 226.122 953.27 226.026C953.819 225.982 954.15 225.856 954.452 225.726C954.919 225.556 955.132 225.639 955.128 226.015L955.211 227.954Z" fill="#94ACB8"/>
<path d="M960.256 227.926C958.814 228.041 957.195 227.971 956.357 227.9L956.303 225.41C957.209 225.571 958.906 225.712 959.899 225.632C961.369 225.514 962.241 224.829 962.149 223.678C962.064 222.621 961.574 222.079 959.481 221.737C957.108 221.311 955.764 220.493 955.574 218.12C955.4 215.945 956.822 214.33 959.967 214.078C961.304 213.971 962.067 214.015 962.724 214.128C963.35 214.217 963.55 214.472 963.555 215.021L963.551 216.728C962.643 216.462 961.628 216.267 960.324 216.371C958.887 216.486 958.215 217.088 958.278 217.87C958.354 218.818 959.039 219.145 960.819 219.479C963.679 219.998 964.59 221.056 964.764 223.225C964.979 225.912 963.473 227.668 960.256 227.926Z" fill="#94ACB8"/>
<path d="M970.511 215.66C968.698 215.805 968.147 217.08 968.242 218.269L968.739 224.481C969.194 224.582 969.993 224.657 970.742 224.597C972.899 224.425 973.978 222.831 973.735 219.808C973.491 216.752 972.22 215.523 970.511 215.66ZM970.701 227.089C968.721 227.248 967.18 226.966 966.09 226.677L964.605 208.137L965.903 208.033C966.83 207.959 967.309 208.297 967.441 208.763C967.49 208.864 967.495 208.93 967.503 209.029L967.963 214.773C968.521 214.008 969.532 213.311 970.869 213.204C974.319 212.928 976.476 215.388 976.799 219.429C977.161 223.945 974.773 226.763 970.701 227.089Z" fill="#94ACB8"/>
</g>
</g>
<g clip-path="url(#clip1_8114_35116)">
<path d="M813.673 156.174C812.756 154.76 810.943 153.778 809.072 153.928C807.426 154.06 806.033 154.863 806.176 156.646C806.296 158.148 808.2 159.02 810.197 160.117C812.374 161.275 814.652 162.731 814.878 165.559C815.174 169.251 811.837 171.798 807.768 172.124C806.096 172.258 804.323 172.067 802.29 171.461L802.22 166.521C803.326 168.406 805.223 169.816 807.842 169.607C809.864 169.445 811.281 168.333 811.142 166.6C811.024 165.123 809.727 164.305 808.158 163.509C804.857 161.826 802.738 160.431 802.513 157.632C802.177 153.429 805.508 151.754 809.077 151.468C811.147 151.302 812.477 151.58 813.798 151.475L813.673 156.174ZM796.582 161.975C796.192 162.776 795.704 163.864 795.414 164.657C795.232 166.132 795.237 168.08 795.408 170.218C795.48 171.109 795.725 172.293 796.157 172.669L790.942 173.087C791.793 172.122 791.73 166.619 791.542 164.891C790.645 162.478 789.505 160.186 787.828 157.424C786.762 155.691 785.551 154.069 784.85 153.793C786.015 153.599 787.506 153.402 788.231 153.344C789.527 153.24 789.892 153.389 790.834 155.108C792.31 157.886 793.407 159.974 794.085 161.536C795.239 159.316 796.046 157.791 797.085 155.709C797.346 155.201 797.546 154.571 797.499 153.985C797.462 153.525 797.346 153.023 797.129 152.81L802.295 152.396C801.315 152.705 797.399 160.271 796.582 161.975ZM778.082 158.975L775.537 166.07L780.577 165.666L778.082 158.975ZM785.366 173.712C783.718 173.844 783.59 173.804 781.896 169.276L781.286 167.608C780.519 168.054 779.108 168.346 776.838 168.528L774.542 168.712L774.212 169.609C773.743 170.955 773.091 172.542 773.177 173.614C773.197 173.869 773.244 174.146 773.373 174.495L759.747 175.586C760.45 174.633 760.469 171.737 760.425 166.486L760.4 165.233C760.361 162.238 760.329 159.935 760.174 158.334C760.043 157.012 759.851 156.181 759.471 155.828L764.738 155.406C764.035 156.052 764.012 159.23 764.082 164.479L764.082 165.734C764.112 167.679 764.022 169.684 764.177 171.619C764.248 172.509 764.614 172.685 765.513 172.613C768.706 172.357 769.5 172.217 770.867 171.108C771.63 169.356 772.485 167.16 773.307 164.891L774.422 161.855C775.474 159.003 776.496 156.102 776.454 155.568C776.423 155.185 776.295 154.838 776.118 154.493L780.31 154.157C780.31 154.157 782.52 160.438 783.005 161.781L784.077 164.822C785.917 169.928 787.02 172.401 788.298 173.298C787.308 173.506 785.89 173.67 785.366 173.712ZM751.418 176.637C746.452 177.035 743.247 173.09 742.872 168.405C742.349 161.888 745.414 156.567 752.028 156.037C754.099 155.872 755.104 156.176 756.775 156.042L756.678 161.098C755.589 159.417 753.945 158.344 751.875 158.51C747.757 158.84 746.448 163.507 746.76 167.402C747.098 171.628 749.605 173.758 752.699 173.51C754.371 173.376 755.806 172.8 758.137 170.846C757.4 174.186 755.235 176.332 751.418 176.637ZM732.786 160.373C732.311 160.411 731.736 160.457 731.292 160.543C731.209 161.395 731.201 162.857 731.213 165.212L731.223 166.596C731.478 166.628 731.804 166.628 732.104 166.604C734.498 166.412 736.028 164.802 735.849 162.563C735.726 161.033 734.607 160.227 732.786 160.373ZM741.197 177.917C739.775 178.031 739.407 177.829 738.88 177.205L732.877 169.999C732.406 169.447 732.043 168.989 731.37 169.043L731.245 169.053L731.264 170.538C731.299 172.56 731.353 174.171 731.449 175.367C731.58 176.689 731.795 177.491 732.172 177.794L726.956 178.212C727.648 177.464 727.739 175.151 727.682 169.108L727.658 167.855C727.621 164.886 727.588 162.582 727.434 160.981C727.296 159.582 727.078 158.728 726.678 158.453L733.79 157.883C736.111 157.697 739.338 157.85 739.646 161.693C739.899 164.849 737.966 166.748 735.461 167.767C735.729 167.977 736.225 168.527 736.529 168.861L740.871 173.844C743.58 176.932 743.791 177.069 744.702 177.457C743.614 177.672 742.146 177.841 741.197 177.917ZM715.619 163.978L713.046 171.075L718.112 170.669L715.619 163.978ZM722.901 178.715C721.255 178.847 721.126 178.807 719.433 174.28L718.822 172.612C718.052 173.057 716.645 173.35 714.374 173.531L712.078 173.715L711.748 174.612C711.422 175.562 710.6 177.525 710.712 178.617C710.733 178.872 710.778 179.125 710.909 179.498L706.292 179.868C707.507 178.413 708.928 175.147 710.843 169.895L711.957 166.859C712.967 164.114 714.024 161.005 713.99 160.572C713.959 160.189 713.832 159.842 713.652 159.497L717.846 159.161C717.846 159.161 719.283 163.325 720.541 166.785L721.613 169.826C723.454 174.932 724.555 177.406 725.833 178.303C724.77 178.515 723.426 178.673 722.901 178.715ZM697.744 163.154C697.369 163.184 696.871 163.224 696.401 163.313C696.311 164.704 696.292 166.038 696.309 167.496C696.309 167.496 696.334 168.749 696.33 168.698L696.829 168.658C699.275 168.463 701.452 167.417 701.269 165.127C701.163 163.802 700.016 162.972 697.744 163.154ZM697.745 170.994L696.373 171.104L696.406 174.022C696.408 175.304 696.443 176.376 696.52 177.652C696.535 177.831 697.114 178.168 698.411 178.064C701.106 177.849 702.769 176.332 702.587 174.065C702.385 171.544 700.29 170.79 697.745 170.994ZM698.805 180.467L692.067 181.006C692.855 180.174 692.841 177.178 692.795 171.902L692.771 170.675C692.733 167.68 692.699 165.376 692.546 163.775C692.411 162.402 692.189 161.522 691.79 161.247L699.327 160.644C701.124 160.5 704.726 160.314 705.032 164.132C705.236 166.678 703.041 168.443 700.965 169.174C703.984 169.24 706.348 170.536 706.601 173.693C706.874 177.104 703.946 180.055 698.805 180.467Z" fill="#94ACB8"/>
<path d="M677.532 159.756C676.865 159.81 676.736 159.94 676.539 160.203C676.45 160.205 676.361 160.21 676.271 160.217C675.758 160.259 675.104 160.388 674.573 160.817C674.059 161.227 673.852 161.895 674.18 162.346C674.18 162.346 674.351 162.04 674.99 161.988C675.079 161.981 675.18 161.983 675.286 161.984C676.178 162.019 676.869 162.441 676.89 163.699C676.919 164.956 676.571 166.388 674.691 166.555C674.691 166.555 674.449 166.574 674.189 166.57C673.305 166.543 672.985 166.004 672.985 166.004C672.985 166.004 673.725 165.734 673.653 164.753C673.593 164.088 672.976 163.523 672.135 163.343C671.845 163.284 671.548 163.267 671.254 163.293C670.286 163.37 669.233 163.871 668.578 164.905C667.096 167.276 667.223 170.548 667.871 173.549C668.522 176.556 670.637 179.22 670.699 179.293C670.743 179.343 670.782 179.37 670.823 179.367C670.847 179.363 670.869 179.351 670.885 179.333C671.637 178.459 672.327 177.293 672.601 176.528C672.98 176.789 672.843 177.42 672.7 178.094C672.568 178.782 672.187 179.711 672.046 180.013C671.911 180.307 671.725 180.651 672.024 180.8C672.059 180.816 672.098 180.823 672.136 180.819C672.502 180.789 673.311 180.07 674.167 178.686C675.124 177.13 675.565 175.781 675.565 175.781C675.645 175.793 675.788 175.918 675.796 176.29C675.811 176.667 675.545 178.095 674.912 179.456C674.27 180.817 673.647 181.686 673.523 181.882C673.446 181.996 673.524 182.057 673.583 182.096C673.64 182.129 675.059 183.28 677.06 184.187C679.428 185.239 680.452 185.38 680.452 185.38C680.452 185.38 681.439 185.084 683.609 183.669C685.439 182.453 686.662 181.085 686.708 181.039C686.76 180.996 686.826 180.93 686.733 180.819C686.588 180.652 685.831 179.89 684.983 178.649C684.145 177.415 683.639 176.039 683.603 175.669C683.558 175.296 683.672 175.162 683.745 175.125C683.745 175.125 684.401 176.394 685.594 177.77C686.664 179.001 687.569 179.582 687.936 179.552C687.976 179.551 688.015 179.538 688.048 179.515C688.31 179.322 688.078 179.006 687.894 178.741C687.72 178.466 687.19 177.616 686.941 176.953C686.7 176.302 686.457 175.702 686.797 175.39C687.19 176.101 688.052 177.15 688.934 177.881C688.944 177.89 688.955 177.898 688.968 177.903C688.98 177.908 688.994 177.91 689.007 177.909C689.043 177.906 689.08 177.875 689.109 177.822C689.163 177.735 690.831 174.773 690.991 171.696C691.154 168.624 690.759 165.38 688.917 163.276C688.111 162.355 686.983 162.027 686.009 162.105C685.705 162.13 685.418 162.193 685.158 162.292C684.351 162.612 683.834 163.273 683.892 163.933C683.97 164.912 684.748 165.061 684.748 165.061C684.748 165.061 684.537 165.628 683.639 165.812C683.478 165.846 683.315 165.87 683.151 165.883C682.469 165.938 681.876 165.762 681.286 165.042C680.713 164.349 680.609 162.835 680.539 162.333C680.475 161.824 680.275 160.684 679.71 160.258C679.146 159.82 678.493 159.71 677.692 159.742C677.633 159.748 677.581 159.752 677.532 159.756Z" fill="#94ACB8"/>
</g>
<path d="M1228.91 39.1573L1190.69 42.2188L1193.69 79.7579L1231.91 76.6965L1228.91 39.1573Z" fill="white"/>
<path d="M1249.52 56.4392L1228.91 39.1562L1231.92 76.7394L1249.52 56.4392Z" fill="#94ACB8"/>
<path d="M1211.3 59.5017L1228.91 39.1573L1190.69 42.2188L1211.3 59.5017Z" fill="#94ACB8"/>
<path d="M1173.04 62.5657L1193.7 79.8008L1190.69 42.2176L1173.04 62.5657Z" fill="#94ACB8"/>
<path d="M1211.3 59.5025L1193.7 79.8029L1231.92 76.7414L1211.3 59.5025Z" fill="#94ACB8"/>
<path d="M1266.38 56.1988L1259.46 56.7534L1260 63.4664L1256.54 63.7437L1255.28 48.0215L1258.74 47.7442L1259.25 54.192L1266.18 53.6374L1265.66 47.1895L1269.13 46.9122L1270.38 62.6344L1266.92 62.9117L1266.38 56.1988Z" fill="#94ACB8"/>
<path d="M1278.77 62.275C1275.31 62.5523 1272.37 61.4101 1272.02 57.6597L1275.49 57.3824C1275.66 59.0571 1276.73 59.9936 1278.62 59.8423C1280.02 59.7307 1281.58 58.8944 1281.46 57.3486C1281.36 56.1121 1280.25 55.8452 1278.41 55.4594L1277.21 55.2438C1274.64 54.739 1272.04 53.9689 1271.82 51.1426C1271.54 47.6536 1274.77 46.1946 1277.78 45.9533C1280.89 45.7048 1283.67 46.5486 1283.99 50.0339L1280.53 50.3112C1280.28 48.9089 1279.36 48.1382 1277.74 48.2679C1276.44 48.3724 1275.23 49.1356 1275.34 50.5489C1275.44 51.6971 1276.54 51.9639 1278.85 52.4906L1280.23 52.78C1283.04 53.3993 1284.87 54.1863 1285.08 56.8361C1285.32 60.3728 1281.92 62.0229 1278.77 62.275Z" fill="#94ACB8"/>
<path d="M1286.13 45.596L1291.7 45.1494C1292.73 45.0224 1293.82 44.9801 1294.86 45.074C1296.83 45.3608 1298.42 46.4786 1298.59 48.5983C1298.75 50.6298 1297.53 51.75 1295.68 52.3871C1297.87 52.6117 1299.57 53.542 1299.76 55.8826C1300.04 59.4599 1296.51 60.5429 1293.72 60.7662L1287.43 61.2704L1286.13 45.596ZM1292.23 51.6857C1293.75 51.5633 1295.3 51.128 1295.16 49.3173C1295.03 47.6832 1293.55 47.3568 1292.11 47.4721L1289.69 47.6665L1290.02 51.8622L1292.23 51.6857ZM1293.08 58.4616C1294.7 58.3319 1296.25 57.8526 1296.09 55.9094C1295.94 53.9662 1294.56 53.721 1292.9 53.8543L1290.15 54.074L1290.52 58.6669L1293.08 58.4616Z" fill="#94ACB8"/>
<path d="M1309.13 59.8442C1303.95 60.2584 1301.4 57.218 1301.02 52.4042C1300.63 47.5904 1302.92 43.8963 1308 43.4893C1311.19 43.2336 1314.4 44.3982 1314.78 47.9241L1311.18 48.2122C1310.87 46.6368 1309.73 45.9282 1308.2 46.0507C1305.05 46.3028 1304.38 49.6908 1304.58 52.2081C1304.78 54.7253 1305.96 57.5646 1308.97 57.3233C1310.54 57.1972 1311.64 56.2644 1311.74 54.6565L1315.34 54.3684C1315.27 58.0187 1312.45 59.5777 1309.13 59.8442Z" fill="#94ACB8"/>
<path d="M1114.36 12.8047L1112.39 12.9626L1111.64 3.58948L1113.61 3.43163C1116.36 3.21283 1118.43 5.05728 1118.67 7.72331C1118.9 10.3895 1117.11 12.5843 1114.36 12.8047ZM1113.41 0.92596L1108.82 1.29335L1109.97 15.6367L1114.56 15.2693C1116.6 15.1054 1118.39 14.1972 1119.62 12.8122C1120.86 11.4273 1121.54 9.56919 1121.38 7.50604C1121.21 5.44306 1120.23 3.71809 1118.79 2.54786C1117.34 1.37781 1115.44 0.763501 1113.41 0.92596ZM1104.21 1.71658L1101.01 8.37459L1096.48 2.28197L1093.4 2.52837L1099.68 10.7961L1096.7 16.7L1099.65 16.4636L1107.18 1.4245L1104.23 1.66072L1104.21 1.71658ZM1086.72 15.2177C1084.01 15.4348 1081.86 13.3977 1081.64 10.6851L1081.64 10.6069C1081.43 7.97604 1083.3 5.66027 1085.94 5.44846C1088.63 5.23319 1090.8 7.26842 1091.01 9.93649C1091.23 12.6492 1089.43 15.0027 1086.72 15.2197M1085.74 2.98559C1083.69 3.14961 1081.92 4.10899 1080.7 5.53791C1079.47 6.96683 1078.81 8.86103 1078.97 10.8847C1079.14 12.9461 1080.08 14.7262 1081.5 15.9485C1082.92 17.1707 1084.83 17.8373 1086.92 17.67C1088.99 17.5044 1090.76 16.5411 1091.98 15.1092C1092.61 14.3641 1093.08 13.5034 1093.37 12.5764C1093.66 11.6495 1093.77 10.6742 1093.68 9.70639C1093.52 7.66481 1092.56 5.89886 1091.13 4.7024C1089.7 3.50594 1087.79 2.82169 1085.76 2.98415M1128.89 5.6075C1127.69 5.34415 1126.91 5.1014 1126.44 4.81636C1125.96 4.53116 1125.79 4.23975 1125.75 3.8152C1125.7 3.20455 1125.97 2.80211 1126.42 2.51312C1126.87 2.22412 1127.47 2.08089 1128.09 2.03123C1129.02 1.95632 1130.3 2.08778 1131.47 2.54143L1131.49 2.5505L1131.67 2.53673L1131.47 0.112944L1131.41 0.0894893C1130.28 -0.30547 1129.1 -0.449259 1127.74 -0.340488C1126.53 -0.243621 1125.39 0.210556 1124.58 0.887607C1123.62 1.69536 1123.17 2.80372 1123.28 4.05633C1123.47 6.49073 1125.49 7.44117 1127.44 7.87524C1128.32 8.08355 1129.1 8.26847 1129.67 8.56599C1130.24 8.86332 1130.59 9.25078 1130.64 9.90013C1130.69 10.534 1130.43 11.0023 1129.99 11.3423C1129.56 11.6821 1128.96 11.8745 1128.36 11.9222C1126.81 12.0483 1125.26 11.5415 1124.32 11.0316L1124.23 10.9959L1124.06 10.9265L1124.28 13.632L1124.4 13.6224C1125.29 14.0359 1126.88 14.4598 1128.59 14.3231C1131.13 14.1143 1133.4 12.2743 1133.19 9.63672C1133 7.20928 1131.21 6.15293 1128.9 5.62628M1059.75 5.23778L1057.12 5.44874L1058.27 19.7905L1067.43 19.0563L1067.23 16.5132L1060.7 17.0365L1059.75 5.23778ZM1071.24 4.31759L1068.6 4.52883L1069.75 18.8706L1078.93 18.1356L1078.73 15.5924L1072.19 16.1162L1071.24 4.31759ZM1107.41 32.3463L1107.37 32.3495L1099.82 22.147L1096.42 22.4191L1097.57 36.7609L1100.13 36.5557L1099.25 25.4905L1099.29 25.4869L1106.99 36.0067L1110.27 35.7438L1109.12 21.402L1106.55 21.608L1107.41 32.3463ZM1119.22 27.2624L1125.42 20.0983L1121.97 20.3747L1116.44 27.0574L1116.38 27.0624L1115.88 20.8625L1113.33 21.067L1114.48 35.4086L1117.03 35.2041L1116.45 28.0118L1116.52 28.0068L1123.43 34.6917L1127.02 34.4038L1119.22 27.2624ZM1085.05 32.2624L1086.83 26.246L1089.52 31.9045L1085.05 32.2624ZM1085.55 23.2952L1080.44 38.1402L1083.31 37.9101L1084.35 34.5276L1090.59 34.0277L1092.2 37.1985L1095.13 36.9637L1087.77 23.1174L1085.55 23.2952ZM1072.68 36.5971L1070.38 36.7818L1070.04 32.6056L1072.45 32.4129C1074.53 32.2464 1075.61 32.6936 1075.73 34.1945C1075.88 36.0719 1074.01 36.4875 1072.68 36.5936M1069.57 26.6914L1071.63 26.5264C1073.57 26.3714 1074.54 26.8017 1074.64 28.076C1074.74 29.3129 1073.9 30.0965 1072.17 30.2351L1069.88 30.4181L1069.57 26.6914ZM1074.92 30.9687L1074.92 30.9275C1076.35 30.3688 1077.29 29.2107 1077.16 27.5868C1076.95 24.9776 1074.64 24.1606 1072.46 24.3347L1066.84 24.7853L1067.99 39.1269L1073.19 38.7102C1075.92 38.4916 1078.55 37.2157 1078.3 34.0979C1078.15 32.174 1076.75 31.0613 1074.93 30.9644" fill="#94ACB8"/>
<path d="M1046.18 21.7781C1047.31 22.3897 1048.45 22.8012 1048.54 23.9213C1048.56 24.2313 1048.13 24.5938 1047.09 24.6767C1046.3 24.7406 1045.42 24.6119 1044.99 24.128C1044.62 23.7668 1045.06 23.2385 1044.74 22.8799C1044.5 22.5812 1044 22.7753 1043.67 22.6474C1043.27 22.4925 1043.21 22.3333 1042.92 21.8847C1042.59 21.334 1041.55 20.4621 1040.32 19.5308C1039.27 18.751 1038.2 18.3975 1037.72 18.4709L1036.98 18.5578C1036.16 18.6233 1035.49 19.3791 1034.35 19.9136C1033.54 20.2997 1033.08 20.5259 1032.55 20.6328L1032.39 20.8364L1033.46 20.7178L1036.79 20.3296C1037.85 20.2454 1038.41 21.0192 1038.87 21.852C1039.8 23.527 1041.19 25.9412 1042.75 27.9247C1043.53 28.8472 1044.14 29.4398 1044.24 30.6566C1044.26 31.021 1044.28 31.5309 1043.7 31.5772C1042.92 31.6398 1040.84 31.0806 1040.78 30.29C1040.73 29.6815 1041.25 29.3847 1041.2 28.7839C1041.17 28.4061 1040.53 28.5194 1040.36 28.1802C1039.7 26.3491 1038.94 24.5574 1037.68 23.549C1037.01 23.0171 1036.92 22.7713 1036.31 22.8196C1035.99 22.8507 1035.68 22.9303 1035.38 23.056C1033.78 23.7304 1031.72 25.5297 1029.05 26.4693C1028.03 26.8319 1027.8 26.3095 1026.74 26.5879L1026.81 26.582C1025.96 26.8061 1025.3 27.3114 1024.15 27.6886C1022.52 28.242 1019.72 28.6281 1017.41 28.5674L1012.79 28.5011C1012.24 30.2999 1010.95 32.6968 1008.87 33.7628C1007.75 34.297 1007.44 34.9629 1007.89 36.0837C1008.44 37.4728 1009.96 38.4083 1010.81 39.5469C1011.58 40.5426 1012.83 42.1005 1014.05 42.5503C1015.28 43.0003 1016.06 43.7548 1016.11 44.4C1016.14 44.7159 1016.01 44.9153 1015.64 44.9444L1013.28 45.1336C1012.92 45.1627 1012.72 44.9911 1012.64 44.8669C1012.27 44.3508 1012.46 43.8288 1011.98 43.3889C1011.63 43.0546 1011.39 43.1789 1010.97 42.9276C1010.21 42.3805 1010.71 41.989 1010.12 41.2721C1008.44 39.3002 1007.75 38.8346 1006.37 37.4501C1005.59 36.7126 1004.7 36.4019 1004.61 35.3595C1004.51 34.0959 1005.93 33.7427 1005.79 32.482C1004.91 33.1653 1003.87 33.7144 1002.22 34.0394C1002.01 34.0991 1001.47 34.5245 1001.24 34.8005C1000.71 35.3504 1000.53 35.8716 1000.52 36.6566C1000.49 38.3753 1000.23 40.1513 1000.61 41.8485C1001.02 42.9329 1001.27 43.2896 1002.35 43.8033C1003.03 44.1447 1003.84 44.6165 1003.97 45.429C1003.99 45.6421 1003.94 45.9089 1003.59 45.9374L1001.03 46.1421C1000.78 46.1624 1000.54 46.0176 1000.46 45.895C1000.15 45.4797 1000.3 45.1277 1000.15 44.6446C999.821 43.6238 998.483 43.7837 998.398 42.7121C998.373 42.402 998.561 41.9677 998.547 41.2961C998.508 39.8365 998.81 37.4447 998.091 34.6356C997.739 32.9984 999.675 32.7769 1000.56 31.2333C1001.11 30.3625 1000.96 30.7299 1001.26 30.0953C1001.57 29.4304 1001.46 28.9867 1001.4 28.6172C1001.37 28.1404 1000.74 27.1686 1000.94 25.0796C1001.01 24.1454 1001.44 23.1868 1002.06 22.3416C1002.06 22.3087 1002.05 22.1808 1001.83 22.1984C1000.83 22.3426 1000.81 22.1198 1000.12 22.1749C999.48 22.2264 999.005 22.7442 998.925 22.9964C998.59 22.9003 998.423 22.5978 998.408 22.4059C998.383 22.0919 998.437 21.7912 998.768 21.4507C998.89 21.3084 998.753 21.2609 998.562 21.2762C997.778 21.339 997.099 22.2513 996.967 22.8723C996.495 22.8439 996.417 22.308 996.195 22.3257C995.973 22.3435 995.867 22.6346 995.891 22.9254C996.053 24.9562 999.818 25.1071 1000.03 27.756C1000.28 30.8409 996.029 30.5454 996.118 31.6539C996.136 31.8767 996.333 32.046 996.667 32.1519C996.54 32.4488 996.194 32.6072 995.795 32.6391C994.862 32.7139 994.132 32.16 994.066 31.3383C993.932 29.6584 996.482 29.425 996.38 28.1537C996.333 27.5725 995.89 27.4129 995.465 27.1427C992.902 25.8209 991.416 24.4013 991.215 21.8939C990.999 19.2043 992.954 16.9688 995.697 16.7491C999.73 16.4261 1000.16 20.5102 1003.86 20.581C1005.15 19.6542 1006.74 19.0436 1008.32 18.9171C1010.69 18.727 1011.78 19.1859 1014.28 18.9854C1015.3 18.9039 1016.97 18.5168 1018.88 17.1427C1019.62 16.6483 1019.91 16.5238 1020.55 15.9266C1022.03 14.5986 1023.32 12.1301 1023.18 10.4501L1023.19 10.5431C1023.15 10.0044 1022.98 9.70245 1022.7 9.72456C1021.83 9.79438 1021.14 10.5515 1020.33 11.3517C1019.83 11.9046 1020.68 12.059 1019.5 12.7639C1019.08 12.9922 1018.56 12.6788 1018.08 12.7171C1017.11 12.7947 1016.6 11.8139 1016.53 10.9264C1016.49 10.4751 1016.88 10.329 1017.07 9.88871C1017.5 8.99225 1017.44 8.67319 1017.84 7.77953C1018.08 7.18648 1018.55 6.76086 1018.48 6.35492C1018.47 6.19998 1018.32 6.11442 1018.31 5.95931C1018.24 5.10663 1019.48 4.42799 1019.41 3.57337C1019.38 3.09866 1018.75 2.92099 1018.55 2.55061C1018.39 2.18147 1018.48 2.0878 1018.48 2.0878C1018.51 2.01382 1018.58 1.98232 1018.65 1.97686C1019.16 1.93635 1019.41 2.39003 1019.9 2.60388C1019.89 2.03915 1019.67 1.92079 1019.63 1.50816C1019.62 1.28725 1019.55 0.949505 1019.8 0.928939C1020.13 0.902927 1020.11 1.28478 1020.42 1.44506C1020.79 1.67276 1021.12 1.61515 1021.53 1.80457C1022.07 2.04658 1022.38 2.50695 1022.57 2.51531C1023.08 2.54644 1023.18 1.99082 1022.9 1.69519C1023.47 1.61601 1024.09 1.97998 1024.85 1.91921C1026.04 1.82416 1026.45 2.0758 1026.68 2.21541C1027.48 2.72464 1027.66 3.15849 1028.49 3.09226C1028.92 3.05798 1029.11 2.7305 1029.21 2.58627C1029.81 2.92829 1029.9 3.87647 1029.38 4.72159C1029.68 5.36437 1030.75 5.34106 1031.29 5.62196C1031.82 5.90285 1031.76 6.06354 1032.14 6.22209C1032.26 6.28335 1032.39 6.3103 1032.52 6.29971C1032.66 6.28913 1032.78 6.24144 1032.89 6.16226C1033.21 7.03778 1032.41 7.89724 1031.38 8.09711C1031.51 9.23679 1032.93 9.82531 1033.56 10.0593C1033.26 10.7914 1032.64 11.0641 1032.06 11.2329C1032.31 11.9249 1033.25 12.8698 1032.89 13.8189C1032.49 13.6911 1031.92 13.8967 1031.96 14.4045C1032 14.9761 1032.86 15.1901 1032.03 15.6742C1031.66 15.8991 1031.62 16.4092 1032.38 16.8301C1033.29 16.5286 1034.19 16.4898 1035.23 16.4061C1035.88 16.3547 1036.73 16.1306 1037.3 16.0845C1038.39 15.9975 1039.05 16.3244 1039.91 17.02C1042.04 18.7612 1043.99 20.6133 1046.16 21.8241" fill="#94ACB8"/>
<path d="M992.437 20.9737C992.869 20.9391 993.489 18.7833 995.1 18.6543C995.575 18.6163 995.687 18.7709 995.699 18.924C995.723 19.2146 995.211 19.5034 995.241 19.8774C995.246 19.9432 995.287 20.0375 995.437 20.0255C995.826 19.9944 996.053 19.2116 997.672 19.082C998.104 19.0474 998.453 19.0584 998.865 19.1171C999.063 19.1402 999.425 19.2595 999.244 18.8333C998.765 17.873 997.476 17.0558 995.741 17.1948C994.019 17.3327 992.333 18.8446 992.247 20.5014C992.237 20.789 992.252 20.9807 992.435 20.9661M1021.21 5.517C1020.73 5.39929 1020.64 5.18267 1020.74 4.66174C1020.8 4.11039 1020.82 3.88457 1020.53 3.84589C1020.28 3.81137 1019.95 3.95602 1019.66 4.2973C1019.4 4.67334 1018.97 5.119 1018.85 5.48562C1018.75 5.9364 1019.35 5.82814 1018.98 6.58704C1018.33 7.86195 1018.16 8.12651 1017.87 9.0158C1017.62 9.9332 1017.38 10.0697 1017.22 10.3665C1017.02 10.6478 1017.53 10.6287 1018.09 10.4336C1018.69 10.1907 1018.77 10.8237 1018.6 11.2859C1018.44 11.6184 1018.6 11.7347 1019.07 11.3404C1019.51 10.9866 1018.77 10.7926 1018.87 9.76045C1018.98 8.82538 1019.15 8.30516 1019.72 7.35228C1020.21 6.50966 1020.63 5.90513 1021.58 6.11704C1021.96 6.24287 1021.74 5.68884 1021.21 5.53807M1043.35 30.8396C1043.53 30.8248 1043.54 30.6 1043.53 30.4353C1043.49 29.9896 1043.16 29.3474 1042.74 29.0902C1042.69 29.7633 1042.36 30.2361 1042.38 30.5269C1042.4 30.7478 1043.09 30.8599 1043.35 30.8396ZM1047.3 24.1108C1047.58 24.0882 1048.01 23.9626 1047.99 23.7727C1047.96 23.391 1047.27 22.7778 1046.67 22.6654C1047.13 23.2981 1046.79 24.1516 1047.3 24.1106M1026.87 17.0298C1031.07 18.3515 1031.06 21.3866 1031.36 20.5711C1031.47 20.2438 1031.9 18.7096 1030.34 17.4013C1029.14 16.3277 1028.72 16.669 1029.08 15.6844C1030.54 11.7653 1031.2 5.97036 1025.76 4.38643C1025.12 4.21865 1024.63 4.25823 1024.64 4.35321C1024.65 4.44819 1025.23 4.56346 1025.95 4.9211C1029.62 6.69382 1029 12.4035 1026 15.3855C1024.99 16.3932 1025.52 16.5937 1026.89 17.0012M1015.1 44.4093C1015.39 44.3865 1015.21 44.0106 1015.1 43.8769C1014.82 43.5097 1014.34 43.2987 1013.92 43.1685C1014.07 43.5366 1014.17 44.4839 1014.6 44.4494L1015.1 44.4093ZM1002.85 45.41C1003.13 45.3873 1002.89 45.0172 1002.78 44.8835C1002.49 44.5163 1001.95 44.3413 1001.56 44.2143C1001.7 44.5818 1001.86 45.4913 1002.28 45.4581L1002.85 45.41ZM1015.96 22.7576C1018.18 22.3576 1018.5 21.8832 1018.78 20.348C1018.92 19.6425 1019.42 18.8731 1019.88 18.3485C1020.18 18.0122 1020.48 17.7151 1020.77 17.23C1020.86 17.0357 1020.94 16.8754 1020.75 16.9394L1019.48 17.8758C1018 18.9849 1015.6 19.6525 1014.64 19.7297C1012.6 19.8934 1010.79 19.4977 1008.92 19.6479C1003.31 20.0967 1001.54 24.1394 1002.01 26.3634C1002.07 26.7095 1002.14 26.7277 1002.28 26.7163C1002.68 26.6845 1002.9 25.333 1004.21 24.0266C1006.12 22.1578 1008.26 20.9718 1011.43 20.7181C1013.72 20.5342 1014.71 21.1183 1014.73 21.3742C1014.77 21.8779 1013.8 21.9868 1013.92 22.4961C1013.93 22.6549 1014.49 22.9882 1015.96 22.7153" fill="white"/>
<path fill-rule="evenodd" clip-rule="evenodd" d="M729.582 42.1244L729.345 39.1731C727.491 39.2421 725.671 38.2096 724.307 37.0464C723.396 36.2697 722.602 35.3612 721.808 34.4534C720.418 32.864 719.031 31.2771 717.025 30.4049C715.773 29.8606 714.431 29.5021 713.07 29.3752C712.818 29.3518 712.561 29.3428 712.303 29.3338C711.364 29.3009 710.421 29.268 709.726 28.5321C708.435 27.1653 708.433 24.4423 708.536 22.6886C708.542 22.5975 708.543 22.4878 708.545 22.3671C708.553 21.8307 708.565 21.0784 708.919 20.793C709.18 20.583 709.515 20.8028 709.74 20.9541C710.032 21.1504 710.319 21.3547 710.606 21.559C710.977 21.8233 711.348 22.0877 711.731 22.3351C714.454 24.094 717.371 25.7403 720.489 26.6897C723.987 27.7544 727.788 28.0068 731.212 26.5537C732.86 25.854 734.307 24.808 735.623 23.612C735.853 23.4032 736.082 23.1813 736.315 22.9564C737.113 22.1836 737.947 21.3764 738.951 20.9524C741.007 20.0842 743.191 21.5441 745.002 22.7543C745.396 23.0173 745.771 23.2685 746.125 23.4815C746.335 23.6083 746.556 23.7329 746.781 23.8596C747.511 24.2702 748.278 24.7017 748.815 25.2928C748.44 25.3935 748.059 25.4558 747.677 25.5181C747.292 25.581 746.907 25.644 746.527 25.7466C744.821 26.208 743.354 27.1043 742.218 28.4656C741.33 29.5303 740.58 30.8371 739.819 32.1635C738.08 35.1934 736.283 38.3258 732.644 38.9089L732.88 41.8602L736.728 41.552C736.884 41.5395 737.054 41.5158 737.231 41.4914C737.695 41.4269 738.201 41.3565 738.603 41.4682C738.936 41.561 739.217 41.8096 739.479 42.0425C739.539 42.0956 739.598 42.148 739.657 42.1974C739.78 42.3015 739.905 42.4043 740.031 42.5074C740.489 42.8834 740.95 43.2623 741.327 43.7138L733.082 44.3742L733.467 49.1837L736.655 48.9283C737.015 48.8995 737.389 48.8747 737.77 48.8493C741.227 48.6196 745.368 48.3445 746.72 44.6019C747.474 42.5163 746.391 41.0355 745.274 39.5088C744.7 38.7234 744.116 37.9259 743.77 37.0277C743.532 36.411 743.355 35.7281 743.511 35.0683C743.791 33.8792 745.143 32.8838 746.305 32.6443C746.295 32.7388 746.284 32.8343 746.272 32.9304C746.209 33.4571 746.143 34.0037 746.27 34.5173C746.646 36.0474 748.015 36.9653 749.338 37.8522C749.936 38.2532 750.524 38.6478 751.007 39.0898C753.637 41.4953 754.755 45.3026 753.466 48.6819C752.15 52.1324 748.327 53.6023 745.075 54.5877C743.355 55.109 741.544 55.2509 739.757 55.3909C739.597 55.4034 739.438 55.4159 739.278 55.4287L732.352 55.9835L725.425 56.5383L725.281 56.5498C723.082 56.7263 720.867 56.9039 718.676 56.5428C715.714 56.0547 712.404 55.1551 710.597 52.5556C708.556 49.619 708.787 45.4516 710.942 42.6274C711.384 42.0476 711.964 41.5047 712.553 40.9528C713.717 39.8634 714.918 38.7391 715.17 37.2283C715.259 36.6946 715.126 36.1936 714.991 35.6884C714.945 35.5143 714.899 35.3396 714.861 35.1629C715.41 35.2715 715.945 35.3814 716.448 35.6373C718.203 36.5301 718.4 38.057 717.821 39.7661C717.597 40.4289 717.268 41.0709 716.941 41.7101C716.14 43.2743 715.348 44.8214 716.115 46.6133C716.312 47.074 716.602 47.4855 716.923 47.8686C719.131 50.5024 722.647 50.142 725.79 49.8199C726.271 49.7707 726.743 49.7223 727.2 49.6857L730.168 49.4479L729.783 44.6384L721.537 45.2989C721.838 44.7931 722.233 44.3456 722.626 43.9015C722.733 43.7798 722.84 43.6583 722.945 43.536C722.995 43.4778 723.045 43.4168 723.096 43.3547C723.318 43.083 723.556 42.793 723.87 42.6482C724.248 42.4742 724.76 42.463 725.228 42.4527C725.406 42.4488 725.578 42.4451 725.734 42.4326L729.582 42.1244ZM739.899 23.1092C738.229 23.784 739.33 26.494 741.002 25.8307C742.849 25.0974 741.741 22.3645 739.899 23.1092Z" fill="#94ACB8"/>
<path fill-rule="evenodd" clip-rule="evenodd" d="M729.317 62.3846C729.314 62.3084 729.311 62.2344 729.306 62.1651L733.154 61.8569C733.247 61.8494 733.346 61.8374 733.45 61.825C733.908 61.7697 734.438 61.7057 734.789 61.9936C735.116 62.2613 735.134 62.7528 735.149 63.178C735.153 63.2754 735.156 63.3692 735.163 63.4561L735.478 67.3911L736.135 75.5891C736.17 76.0316 736.194 76.4807 736.219 76.9318C736.272 77.9119 736.325 78.901 736.495 79.8505C736.592 80.3943 736.731 80.99 737.038 81.4567C737.151 81.6278 737.313 81.7633 737.475 81.8976C737.657 82.0494 737.837 82.1996 737.941 82.3979C738.042 82.5907 738.054 82.8358 738.065 83.0627C738.068 83.1251 738.071 83.186 738.076 83.2442L734.008 83.57C733.927 83.5765 733.84 83.5873 733.748 83.5986C733.328 83.6502 732.822 83.7126 732.529 83.4207C732.247 83.1405 732.234 82.6132 732.223 82.1746C732.221 82.0556 732.218 81.9431 732.21 81.8439L731.895 77.9089L731.22 69.4923C731.185 69.0498 731.162 68.599 731.139 68.1459C731.089 67.1658 731.039 66.1744 730.86 65.2309C730.769 64.7496 730.593 64.2221 730.263 63.8507C730.165 63.7405 730.037 63.649 729.909 63.5572C729.729 63.428 729.548 63.2982 729.449 63.1152C729.337 62.9093 729.327 62.6352 729.317 62.3846ZM741.374 82.98L739.641 61.3373L746.567 60.7825C748.782 60.6051 750.997 60.433 753.041 61.4813C755.829 62.9117 756.933 66.3661 755.381 69.0971C755.036 69.7046 754.593 70.2667 753.995 70.6382L754.013 70.8569C754.637 70.9826 755.202 71.2523 755.732 71.6009C759.049 73.7831 759.019 78.5077 755.804 80.7843C754.119 81.9773 752.235 82.1201 750.263 82.2695C750.086 82.283 749.908 82.2964 749.73 82.3107L741.374 82.98ZM711.469 85.3753L708.501 85.6131C709.352 82.2522 710.432 78.9449 711.512 75.6395C712.229 73.4418 712.947 71.245 713.596 69.0338C713.663 68.8083 713.729 68.5828 713.795 68.3573C714.137 67.1894 714.478 66.0223 714.849 64.8631C714.88 64.7674 714.908 64.6429 714.938 64.5069C715.025 64.1105 715.134 63.6167 715.404 63.4549C715.646 63.3103 716.021 63.3041 716.35 63.2986C716.465 63.2967 716.575 63.2948 716.671 63.2871C716.874 63.2709 717.085 63.2446 717.299 63.2179C718.298 63.0933 719.374 62.9592 720.069 63.7867C720.3 64.0615 720.457 64.4217 720.609 64.7685C720.668 64.9036 720.727 65.0366 720.788 65.1618C720.912 65.4158 721.039 65.6673 721.165 65.9184C721.409 66.4022 721.651 66.8845 721.877 67.3804C722.325 68.3629 722.813 69.3294 723.302 70.2951C723.648 70.9802 723.994 71.6649 724.325 72.3547C725.498 74.7985 726.706 77.2373 727.926 79.6569C728.129 80.061 728.326 80.4689 728.522 80.8766C728.718 81.2831 728.914 81.6895 729.116 82.0917C729.192 82.2424 729.273 82.3908 729.354 82.539C729.59 82.9748 729.826 83.4088 729.94 83.8958L726.642 84.16C726.567 84.166 726.485 84.1769 726.397 84.1883C726.053 84.2337 725.638 84.2883 725.388 84.0841C725.172 83.9081 725.043 83.592 724.925 83.3033C724.879 83.1908 724.835 83.0826 724.788 82.9884C724.63 82.6711 724.479 82.3488 724.327 82.0263C724.094 81.5298 723.86 81.0328 723.602 80.5532C723.565 80.4847 723.527 80.4061 723.487 80.3231C723.341 80.0191 723.166 79.6559 722.904 79.5122C722.494 79.2878 721.724 79.4107 721.102 79.5099C720.883 79.545 720.682 79.577 720.522 79.5899L714.475 80.0742C714.431 81.0906 714.034 82.2274 713.676 83.2509C713.598 83.4721 713.523 83.688 713.453 83.8963C713.425 83.9791 713.399 84.0776 713.371 84.1833C713.269 84.5608 713.143 85.0298 712.85 85.1984C712.585 85.3503 712.181 85.3569 711.825 85.3627C711.698 85.3648 711.576 85.3668 711.469 85.3753ZM744.537 69.9648L744.125 64.8274L747.973 64.5192C748.116 64.5077 748.263 64.4918 748.41 64.4758C748.967 64.4153 749.547 64.3524 750.075 64.5135C752.113 65.1349 752.559 67.9447 750.777 69.1383C750.195 69.5281 749.47 69.5787 748.783 69.6267C748.686 69.6334 748.59 69.6401 748.495 69.6477L744.537 69.9648ZM717.162 71.8241C717.394 71.0221 717.627 70.2169 717.94 69.4549C718.43 69.9151 718.735 70.6122 719.02 71.2661C719.112 71.4772 719.202 71.6838 719.296 71.8765C719.601 72.5017 719.916 73.1214 720.232 73.7413C720.56 74.3866 720.889 75.032 721.205 75.6839L715.928 76.1066C715.97 75.3456 716.233 74.6274 716.494 73.9128C716.584 73.6687 716.673 73.4251 716.753 73.1803C716.899 72.7349 717.03 72.28 717.162 71.8241ZM745.255 78.9279L744.843 73.7905L749.901 73.3854C750.057 73.3728 750.217 73.3559 750.377 73.3388C751.118 73.26 751.885 73.1784 752.566 73.5102C754.368 74.3884 754.43 77.0678 752.71 78.0664C752.084 78.4295 751.327 78.47 750.602 78.5087C750.429 78.518 750.259 78.5271 750.092 78.5404L745.255 78.9279Z" fill="#94ACB8"/>
</g>
<defs>
<linearGradient id="paint0_linear_8114_35116" x1="379.5" y1="83.5" x2="1328" y2="83.5001" gradientUnits="userSpaceOnUse">
<stop stop-color="white"/>
<stop offset="1" stop-color="white" stop-opacity="0"/>
</linearGradient>
<clipPath id="clip0_8114_35116">
<rect width="148.315" height="95.8141" fill="white" transform="translate(824.95 170.752) rotate(-4.57951)"/>
</clipPath>
<clipPath id="clip1_8114_35116">
<rect width="148.315" height="95.8141" fill="white" transform="translate(663.846 125.721) rotate(-4.57951)"/>
</clipPath>
</defs>
</svg>
