<svg width="12" height="12" viewBox="0 0 12 12" fill="none" xmlns="http://www.w3.org/2000/svg">
<path fill-rule="evenodd" clip-rule="evenodd" d="M3.70712 2.2929C3.3166 1.90237 2.68343 1.90236 2.2929 2.29288C1.90237 2.6834 1.90236 3.31657 2.29288 3.7071L4.58685 6.00112L2.29314 8.29488C1.90262 8.68541 1.90263 9.31858 2.29316 9.7091C2.68369 10.0996 3.31686 10.0996 3.70738 9.70908L6.00104 7.41535L8.2947 9.70908C8.68522 10.0996 9.31839 10.0996 9.70892 9.7091C10.0994 9.31858 10.0995 8.68541 9.70894 8.29489L7.41524 6.00112L9.7092 3.7071C10.0997 3.31657 10.0997 2.6834 9.70918 2.29288C9.31865 1.90236 8.68548 1.90237 8.29497 2.2929L6.00104 4.58689L3.70712 2.2929Z" fill="#F32448"/>
</svg>
