<svg width="16" height="16" viewBox="0 0 16 16" fill="none" xmlns="http://www.w3.org/2000/svg">
<path fill-rule="evenodd" clip-rule="evenodd" d="M6.26087 2.08696C5.87667 2.08696 5.56522 2.39841 5.56522 2.78261V10.5673C5.56522 12.1041 4.3194 13.3499 2.78261 13.3499C1.24582 13.3499 0 12.1041 0 10.5673V6.34369C0 5.76739 0.467181 5.30021 1.04348 5.30021C1.61978 5.30021 2.08696 5.76739 2.08696 6.34369V10.5673C2.08696 10.9515 2.39841 11.2629 2.78261 11.2629C3.16681 11.2629 3.47826 10.9515 3.47826 10.5673V2.78261C3.47826 1.24581 4.72408 0 6.26087 0C7.79766 0 9.04348 1.24582 9.04348 2.78261V13.2174C9.04348 13.6016 9.35493 13.913 9.73913 13.913C10.1233 13.913 10.4348 13.6016 10.4348 13.2174V5.43271C10.4348 3.89592 11.6806 2.6501 13.2174 2.6501C14.7542 2.6501 16 3.89592 16 5.43271V9.65631C16 10.2326 15.5328 10.6998 14.9565 10.6998C14.3802 10.6998 13.913 10.2326 13.913 9.65631V5.43271C13.913 5.04851 13.6016 4.73706 13.2174 4.73706C12.8332 4.73706 12.5217 5.04851 12.5217 5.43271V13.2174C12.5217 14.7542 11.2759 16 9.73913 16C8.20234 16 6.95652 14.7542 6.95652 13.2174V2.78261C6.95652 2.39841 6.64507 2.08696 6.26087 2.08696Z" fill="url(#paint0_linear_3820_7064)"/>
<defs>
<linearGradient id="paint0_linear_3820_7064" x1="2.87883" y1="8" x2="13.0161" y2="8" gradientUnits="userSpaceOnUse">
<stop stop-color="#04E2B6"/>
<stop offset="1" stop-color="#00D3FF"/>
</linearGradient>
</defs>
</svg>
