<svg width="1130" height="145" viewBox="0 0 1130 145" fill="none" xmlns="http://www.w3.org/2000/svg">
<path d="M0 103.751L322.276 103.751C348.253 103.751 369.311 82.6931 369.311 56.7166V25.1737C369.311 16.6179 376.247 9.68203 384.802 9.68203V9.68203C393.358 9.68203 400.294 16.6179 400.294 25.1737V115.801C400.294 123.79 406.771 130.267 414.761 130.267V130.267C422.75 130.267 429.227 123.79 429.227 115.801V66.3244C429.227 57.7057 436.214 50.7189 444.833 50.7189V50.7189C453.451 50.7189 460.438 57.7057 460.438 66.3244V83.1373C460.438 90.6866 466.558 96.8064 474.107 96.8064V96.8064C481.656 96.8064 487.776 90.6866 487.776 83.1373V31.0584C487.776 23.3205 494.049 17.0476 501.787 17.0476V17.0476C509.525 17.0476 515.798 23.3205 515.798 31.0584V126.761C515.798 134.625 522.173 141 530.037 141V141C537.9 141 544.275 134.625 544.275 126.761V59.3276C544.275 51.0864 550.956 44.4055 559.197 44.4055V44.4055C567.439 44.4055 574.119 51.0864 574.119 59.3276V111.488C574.119 120.232 581.208 127.321 589.953 127.321V127.321C598.697 127.321 605.786 120.232 605.786 111.488V17.4413C605.786 10.0179 611.804 4 619.227 4V4C626.651 4 632.669 10.0179 632.669 17.4413V107.391C632.669 114.562 638.483 120.376 645.654 120.376V120.376C652.826 120.376 658.64 114.562 658.64 107.391V48.8845C658.64 40.832 665.168 34.3041 673.22 34.3041V34.3041C681.273 34.3041 687.801 40.832 687.801 48.8845V67.7324C687.801 76.3511 694.788 83.3379 703.406 83.3379V83.3379C712.025 83.3379 719.012 76.3511 719.012 67.7323V34.6978C719.012 27.2744 725.03 21.2565 732.453 21.2565V21.2565C739.877 21.2565 745.894 27.2744 745.894 34.6978V79.8224C745.894 86.9941 751.708 92.808 758.88 92.808V92.808C766.052 92.808 771.866 86.9941 771.866 79.8224V74.1836C771.866 63.8976 780.204 55.5591 790.49 55.5591L1130 55.5591" stroke="#F0F5F4" stroke-width="8"/>
</svg>
