<svg width="16" height="16" viewBox="0 0 16 16" fill="none" xmlns="http://www.w3.org/2000/svg">
<g clip-path="url(#clip0_3820_7075)">
<path d="M14.5 14.5C14.5 14.7652 14.3946 15.0196 14.2071 15.2071C14.0196 15.3946 13.7652 15.5 13.5 15.5H2.5C2.23478 15.5 1.98043 15.3946 1.79289 15.2071C1.60536 15.0196 1.5 14.7652 1.5 14.5V1.5C1.5 1.23478 1.60536 0.98043 1.79289 0.792893C1.98043 0.605357 2.23478 0.5 2.5 0.5H9.586C9.85103 0.500057 10.1052 0.605321 10.2927 0.792667L14.2073 4.70733C14.3947 4.8948 14.4999 5.14897 14.5 5.414V14.5Z" stroke="#A6C8D9" stroke-linecap="round" stroke-linejoin="round"/>
<path d="M14.5 5.5H10.5C10.2348 5.5 9.98043 5.39464 9.79289 5.20711C9.60536 5.01957 9.5 4.76522 9.5 4.5V0.5" stroke="#A6C8D9" stroke-linecap="round" stroke-linejoin="round"/>
<path d="M7.66669 12.5C5.89446 12.5 4.91669 11.5222 4.91669 9.75C4.91669 7.97778 5.89446 7 7.66669 7" stroke="#A6C8D9" stroke-linecap="round" stroke-linejoin="round"/>
<path d="M4 8.83333H7.66667" stroke="#A6C8D9" stroke-linecap="round" stroke-linejoin="round"/>
<path d="M4 10.6667H7.66667" stroke="#A6C8D9" stroke-linecap="round" stroke-linejoin="round"/>
</g>
<defs>
<clipPath id="clip0_3820_7075">
<rect width="16" height="16" fill="white"/>
</clipPath>
</defs>
</svg>
