<svg width="14" height="9" viewBox="0 0 14 9" fill="none" xmlns="http://www.w3.org/2000/svg">
<path id="Union" fill-rule="evenodd" clip-rule="evenodd" d="M8.67078 7.62372C8.46296 7.80556 8.4419 8.12144 8.62374 8.32926C8.80558 8.53708 9.12147 8.55814 9.32928 8.37629L13.3293 4.8763C13.4378 4.78135 13.5 4.64419 13.5 4.50001C13.5 4.35583 13.4378 4.21866 13.3293 4.12372L9.32928 0.623719C9.12147 0.441878 8.80558 0.462937 8.62374 0.670755C8.4419 0.878573 8.46296 1.19445 8.67078 1.3763L11.607 3.94549L0.5 3.94549C0.223858 3.94549 0 4.16934 0 4.44549C0 4.72163 0.223858 4.94549 0.5 4.94549L11.7316 4.94549L8.67078 7.62372Z" fill="white"/>
</svg>
