<svg width="16" height="16" viewBox="0 0 16 16" fill="none" xmlns="http://www.w3.org/2000/svg">
<g clip-path="url(#clip0_3820_7067)">
<path d="M8.46667 2.86667C8.46667 3.8976 6.7952 4.73333 4.73333 4.73333C2.67147 4.73333 1 3.8976 1 2.86667M8.46667 2.86667C8.46667 1.83574 6.7952 1 4.73333 1C2.67147 1 1 1.83574 1 2.86667M8.46667 2.86667V5.35556M1 2.86667V12.2C1 13.2329 2.67378 14.0667 4.73333 14.0667C5.08522 14.0679 5.43671 14.043 5.78489 13.992M1 9.86667C1 10.8996 2.67378 11.7333 4.73333 11.7333C5.09363 11.7324 5.45338 11.7053 5.80978 11.6524M1 7.53333C1 8.56622 2.67378 9.4 4.73333 9.4C5.08522 9.40125 5.43671 9.37629 5.78489 9.32533M1 5.2C1 6.23289 2.67378 7.06667 4.73333 7.06667C5.09363 7.06571 5.45338 7.03868 5.80978 6.98578M15 8.62222C15 9.65315 13.3285 10.4889 11.2667 10.4889C9.20481 10.4889 7.53334 9.65315 7.53334 8.62222M15 8.62222C15 7.59129 13.3285 6.75556 11.2667 6.75556C9.20481 6.75556 7.53334 7.59129 7.53334 8.62222M15 8.62222L15 13.1333C15 14.1662 13.3262 15 11.2667 15C9.20713 15 7.53335 14.1662 7.53335 13.1333L7.53334 8.62222M15 10.8C15 11.8329 13.3262 12.6667 11.2667 12.6667C9.20713 12.6667 7.53335 11.8329 7.53335 10.8" stroke="#A6C8D9" stroke-linecap="round" stroke-linejoin="round"/>
</g>
<defs>
<clipPath id="clip0_3820_7067">
<rect width="16" height="16" fill="white"/>
</clipPath>
</defs>
</svg>
