<svg width="16" height="16" viewBox="0 0 16 16" fill="none" xmlns="http://www.w3.org/2000/svg">
<g id="Dashboard Icon" clip-path="url(#clip0_1_1613)">
<path id="Vector" d="M15.2452 5.96471L7.99992 0.498047L0.747915 5.96471C0.597994 6.10306 0.507845 6.29436 0.496582 6.49805V14.846C0.49711 15.0188 0.565972 15.1843 0.688131 15.3065C0.810291 15.4287 0.975823 15.4975 1.14858 15.498H5.49658V12C5.49658 11.337 5.75997 10.7011 6.22882 10.2323C6.69766 9.76344 7.33354 9.50005 7.99658 9.50005C8.65962 9.50005 9.29551 9.76344 9.76435 10.2323C10.2332 10.7011 10.4966 11.337 10.4966 12V15.5H14.8439C15.0167 15.4995 15.1823 15.4307 15.3046 15.3085C15.4269 15.1864 15.4959 15.0209 15.4966 14.848V6.49805C15.485 6.29443 15.3949 6.10323 15.2452 5.96471Z" stroke="#A6C8D9" stroke-linecap="round" stroke-linejoin="round"/>
</g>
<defs>
<clipPath id="clip0_1_1613">
<rect width="16" height="16" fill="white"/>
</clipPath>
</defs>
</svg>
