<svg width="92" height="18" viewBox="0 0 92 18" fill="none" xmlns="http://www.w3.org/2000/svg">
<path fill-rule="evenodd" clip-rule="evenodd" d="M7.04348 2.34783C6.61125 2.34783 6.26087 2.69821 6.26087 3.13043V11.8882C6.26087 13.6171 4.85933 15.0186 3.13043 15.0186C1.40154 15.0186 0 13.6171 0 11.8882V7.13665C0 6.48831 0.525579 5.96273 1.17391 5.96273C1.82225 5.96273 2.34783 6.48831 2.34783 7.13665V11.8882C2.34783 12.3204 2.69821 12.6708 3.13043 12.6708C3.56266 12.6708 3.91304 12.3204 3.91304 11.8882V3.13043C3.91304 1.40154 5.31459 0 7.04348 0C8.77237 0 10.1739 1.40154 10.1739 3.13043V14.8696C10.1739 15.3018 10.5243 15.6522 10.9565 15.6522C11.3887 15.6522 11.7391 15.3018 11.7391 14.8696V6.1118C11.7391 4.38291 13.1407 2.98137 14.8696 2.98137C16.5985 2.98137 18 4.38291 18 6.1118V10.8634C18 11.5117 17.4744 12.0373 16.8261 12.0373C16.1778 12.0373 15.6522 11.5117 15.6522 10.8634V6.1118C15.6522 5.67958 15.3018 5.32919 14.8696 5.32919C14.4373 5.32919 14.087 5.67958 14.087 6.1118V14.8696C14.087 16.5985 12.6854 18 10.9565 18C9.22763 18 7.82609 16.5985 7.82609 14.8696V3.13043C7.82609 2.69821 7.4757 2.34783 7.04348 2.34783Z" fill="url(#paint0_linear_4576_36408)"/>
<path d="M33.4664 13.535H31.7947C31.4014 13.535 31.1883 13.2572 31.1883 12.8814V8.7303C31.1883 7.79883 30.6311 7.14508 29.615 7.14508C28.7956 7.14508 28.1728 7.61911 27.7958 8.2564V13.2572C27.7983 13.2916 27.7939 13.3262 27.7828 13.3589C27.7718 13.3916 27.7543 13.4218 27.7314 13.4476C27.7085 13.4735 27.6807 13.4946 27.6495 13.5096C27.6183 13.5246 27.5845 13.5332 27.5499 13.535H25.6979C25.6617 13.5364 25.6256 13.53 25.5921 13.5162C25.5586 13.5025 25.5284 13.4818 25.5036 13.4555C25.4787 13.4292 25.4598 13.3979 25.4481 13.3637C25.4365 13.3295 25.4322 13.2932 25.4358 13.2572V5.46187C25.434 5.3948 25.4588 5.32973 25.5049 5.28079C25.5509 5.23184 25.6144 5.20295 25.6816 5.20039H27.5499C27.5844 5.19752 27.619 5.20246 27.6513 5.21483C27.6836 5.22721 27.7126 5.2467 27.7363 5.27185C27.7599 5.297 27.7775 5.32715 27.7878 5.36006C27.7981 5.39296 27.8008 5.42777 27.7958 5.46187V6.45873C28.3695 5.7397 29.238 5.08594 30.5327 5.08594C32.1882 5.08594 33.5485 6.14822 33.5485 8.19101V12.0152C33.5447 12.4089 33.5721 12.8024 33.6304 13.1918C33.6632 13.3716 33.5976 13.535 33.4664 13.535Z" fill="white"/>
<path d="M34.3916 9.39578C34.3916 6.83004 36.3418 5.09766 38.8166 5.09766C41.275 5.09766 43.2253 6.83004 43.2253 9.39578C43.2253 11.9452 41.275 13.6774 38.8166 13.6774C36.3418 13.6774 34.3916 11.9452 34.3916 9.39578ZM41.0619 9.39578C41.0619 8.07203 40.1279 7.09151 38.8166 7.09151C37.4891 7.09151 36.5548 8.07203 36.5548 9.39578C36.5548 10.7195 37.4891 11.6837 38.8166 11.6837C40.1279 11.6837 41.0619 10.7195 41.0619 9.39578Z" fill="white"/>
<path d="M50.4281 1.51831L49.7725 2.66232C49.7606 2.69701 49.741 2.7286 49.7152 2.75476C49.6895 2.78093 49.6581 2.80102 49.6236 2.81355C49.589 2.82608 49.5521 2.83074 49.5154 2.82718C49.4788 2.82363 49.4435 2.81195 49.412 2.793C49.122 2.59519 48.78 2.48717 48.4287 2.48248C47.8714 2.48248 47.1502 2.77666 47.1502 3.87162V5.21172H49.0187C49.0461 5.21122 49.0733 5.21651 49.0984 5.22724C49.1236 5.23797 49.1462 5.25389 49.1648 5.27395C49.1834 5.29402 49.1975 5.31778 49.2061 5.34367C49.2148 5.36956 49.2179 5.39699 49.2152 5.42415V7.12382C49.2163 7.14984 49.2119 7.17579 49.2024 7.20004C49.1929 7.22429 49.1784 7.24631 49.16 7.26473C49.1415 7.28314 49.1195 7.29755 49.0951 7.30705C49.0708 7.31654 49.0448 7.32092 49.0187 7.3199H47.1502V13.2849C47.1534 13.32 47.1488 13.3554 47.1368 13.3886C47.1248 13.4218 47.1056 13.4519 47.0806 13.4769C47.0556 13.5018 47.0253 13.521 46.9921 13.533C46.9588 13.545 46.9233 13.5496 46.8881 13.5464H45.0524C45.0171 13.5496 44.9816 13.545 44.9484 13.533C44.9151 13.521 44.8849 13.5018 44.8599 13.4769C44.8348 13.4519 44.8156 13.4218 44.8036 13.3886C44.7916 13.3554 44.787 13.32 44.7902 13.2849V7.3199H43.8069C43.7799 7.32123 43.753 7.31718 43.7276 7.308C43.7022 7.29882 43.679 7.28469 43.6591 7.26644C43.6393 7.24818 43.6233 7.22617 43.6121 7.20168C43.6009 7.17719 43.5947 7.15073 43.5939 7.12382V5.42415C43.5929 5.39601 43.5978 5.36798 43.6082 5.3418C43.6186 5.31561 43.6343 5.29183 43.6542 5.27192C43.6742 5.25201 43.6981 5.23639 43.7243 5.22604C43.7506 5.21569 43.7787 5.21081 43.8069 5.21172H44.7902V3.59377C44.7902 1.5183 46.1178 0.390625 47.9533 0.390625C48.871 0.390625 49.7725 0.668458 50.3298 1.10978C50.3913 1.15577 50.4349 1.22176 50.4528 1.29636C50.4708 1.37095 50.4621 1.44946 50.4281 1.51831V1.51831Z" fill="white"/>
<path d="M56.7786 6.09511L55.9754 7.40238C55.9574 7.43382 55.9333 7.46136 55.9045 7.48338C55.8757 7.50539 55.8427 7.52144 55.8076 7.53058C55.7725 7.53972 55.7359 7.54177 55.6999 7.5366C55.664 7.53143 55.6295 7.51916 55.5984 7.50049C55.2578 7.27473 54.8599 7.15007 54.4511 7.14101C53.7136 7.14101 53.1891 7.58223 52.8777 8.21953V13.2694C52.8802 13.3038 52.8758 13.3384 52.8648 13.3711C52.8537 13.4038 52.8362 13.4339 52.8133 13.4598C52.7904 13.4857 52.7626 13.5068 52.7314 13.5218C52.7003 13.5368 52.6664 13.5454 52.6319 13.5472H50.7799C50.7437 13.5485 50.7077 13.5421 50.6741 13.5284C50.6406 13.5147 50.6104 13.494 50.5856 13.4677C50.5608 13.4413 50.5419 13.41 50.5302 13.3758C50.5185 13.3416 50.5143 13.3053 50.5178 13.2694V5.47404C50.5161 5.40697 50.5409 5.34191 50.5869 5.29296C50.6329 5.24402 50.6964 5.21513 50.7637 5.21257H52.632C52.6664 5.2097 52.7011 5.21464 52.7333 5.22701C52.7656 5.23938 52.7946 5.25888 52.8183 5.28403C52.8419 5.30918 52.8596 5.33933 52.8699 5.37224C52.8802 5.40514 52.8829 5.43995 52.8778 5.47404V6.34023C53.4022 5.65378 54.1397 5.09812 55.1231 5.09812C55.685 5.08698 56.2321 5.27849 56.6637 5.63743C56.8441 5.78459 56.8932 5.91526 56.7786 6.09511Z" fill="white"/>
<path d="M57.6221 1.68126C57.6248 1.36288 57.7539 1.05855 57.9812 0.834936C58.2085 0.611327 58.5155 0.486676 58.8348 0.488297C59.073 0.489873 59.3055 0.561871 59.5027 0.695185C59.6999 0.8285 59.8531 1.01714 59.9428 1.23726C60.0325 1.45737 60.0548 1.69906 60.0067 1.93178C59.9586 2.16449 59.8425 2.37777 59.6728 2.54463C59.5032 2.7115 59.2878 2.82446 59.0538 2.86923C58.8198 2.91401 58.5777 2.88858 58.3582 2.79616C58.1387 2.70374 57.9516 2.54849 57.8205 2.35004C57.6895 2.15159 57.6205 1.91885 57.6221 1.68126V1.68126ZM57.6549 13.2844V5.47276C57.653 5.43794 57.6585 5.40312 57.671 5.37056C57.6835 5.338 57.7028 5.30842 57.7275 5.28376C57.7522 5.2591 57.7819 5.2399 57.8145 5.22742C57.8472 5.21493 57.8821 5.20943 57.917 5.21128H59.7527C59.7873 5.21083 59.8216 5.21729 59.8536 5.23027C59.8856 5.24325 59.9147 5.2625 59.9391 5.28687C59.9635 5.31124 59.9828 5.34025 59.9958 5.37218C60.0088 5.4041 60.0153 5.4383 60.0148 5.47276V13.2844C60.0153 13.3189 60.0088 13.3531 59.9958 13.385C59.9828 13.4169 59.9635 13.4459 59.9391 13.4703C59.9147 13.4947 59.8856 13.5139 59.8536 13.5269C59.8216 13.5399 59.7873 13.5464 59.7527 13.5459H57.917C57.8821 13.5478 57.8472 13.5423 57.8145 13.5298C57.7819 13.5173 57.7522 13.4981 57.7275 13.4734C57.7028 13.4488 57.6835 13.4192 57.671 13.3866C57.6585 13.3541 57.653 13.3193 57.6549 13.2844H57.6549Z" fill="white"/>
<path d="M68.7903 13.5472H66.8401C66.6924 13.5472 66.6268 13.4981 66.545 13.3511L65.0534 11.0794L63.5622 13.3511C63.5377 13.4124 63.4944 13.4645 63.4385 13.4997C63.3825 13.5349 63.3168 13.5515 63.2507 13.5472H61.3003C61.2563 13.5404 61.2148 13.5223 61.1799 13.4947C61.145 13.4671 61.1179 13.4308 61.1013 13.3896C61.0848 13.3483 61.0793 13.3035 61.0855 13.2595C61.0916 13.2154 61.1092 13.1738 61.1364 13.1386L63.7915 9.36345L61.1529 5.62105C61.1244 5.58504 61.1062 5.54197 61.1004 5.49646C61.0946 5.45096 61.1013 5.40473 61.1198 5.36273C61.1384 5.32074 61.168 5.28457 61.2056 5.2581C61.2432 5.23163 61.2873 5.21586 61.3331 5.21249H63.267C63.3356 5.20573 63.4044 5.22115 63.4635 5.25647C63.5226 5.29178 63.5686 5.34511 63.5949 5.40857L65.0534 7.64755L66.5122 5.40857C66.5366 5.34722 66.5799 5.29517 66.6358 5.25994C66.6918 5.2247 66.7575 5.20808 66.8236 5.21249H68.7903C68.9705 5.21249 69.0689 5.44127 68.9542 5.62105L66.3156 9.3635L68.9705 13.1387C69.0007 13.1741 69.0203 13.2174 69.0271 13.2635C69.0338 13.3095 69.0274 13.3565 69.0086 13.3992C68.9898 13.4418 68.9593 13.4782 68.9207 13.5044C68.8821 13.5306 68.8369 13.5454 68.7903 13.5472V13.5472Z" fill="white"/>
<path d="M70.0606 1.68126C70.0633 1.36288 70.1924 1.05855 70.4197 0.834936C70.647 0.611326 70.9539 0.486676 71.2732 0.488297C71.5115 0.489876 71.744 0.561876 71.9412 0.695192C72.1384 0.828508 72.2916 1.01715 72.3813 1.23726C72.471 1.45738 72.4932 1.69907 72.4452 1.93179C72.3971 2.1645 72.2809 2.37777 72.1113 2.54464C71.9417 2.7115 71.7262 2.82447 71.4922 2.86924C71.2582 2.91401 71.0162 2.88857 70.7967 2.79616C70.5771 2.70374 70.39 2.54849 70.259 2.35004C70.128 2.15159 70.0589 1.91885 70.0606 1.68126V1.68126ZM70.0934 13.2844V5.47276C70.0915 5.43794 70.097 5.40312 70.1095 5.37055C70.122 5.33799 70.1413 5.30842 70.166 5.28376C70.1907 5.2591 70.2204 5.2399 70.253 5.22741C70.2857 5.21493 70.3206 5.20943 70.3555 5.21128H72.1912C72.2258 5.21083 72.2601 5.21729 72.2921 5.23028C72.3241 5.24326 72.3532 5.2625 72.3776 5.28688C72.402 5.31125 72.4213 5.34025 72.4343 5.37218C72.4473 5.4041 72.4538 5.4383 72.4533 5.47276V13.2844C72.4538 13.3189 72.4473 13.3531 72.4343 13.385C72.4213 13.4169 72.402 13.4459 72.3776 13.4703C72.3532 13.4947 72.3241 13.5139 72.2921 13.5269C72.2601 13.5399 72.2258 13.5464 72.1912 13.5459H70.3555C70.3206 13.5478 70.2857 13.5423 70.253 13.5298C70.2204 13.5173 70.1907 13.4981 70.166 13.4734C70.1413 13.4488 70.122 13.4192 70.1095 13.3866C70.097 13.3541 70.0915 13.3193 70.0934 13.2844V13.2844Z" fill="white"/>
<path d="M73.5098 9.39578C73.5098 6.83004 75.4599 5.09766 77.9348 5.09766C80.3932 5.09766 82.3435 6.83004 82.3435 9.39578C82.3435 11.9452 80.3931 13.6774 77.9348 13.6774C75.4599 13.6774 73.5098 11.9452 73.5098 9.39578ZM80.1801 9.39578C80.1801 8.07203 79.246 7.09151 77.9348 7.09151C76.6072 7.09151 75.673 8.07203 75.673 9.39578C75.673 10.7195 76.6072 11.6837 77.9348 11.6837C79.246 11.6837 80.1801 10.7195 80.1801 9.39578Z" fill="white"/>
<path d="M91.2838 13.5467H89.6121C89.2188 13.5467 89.0057 13.2689 89.0057 12.8931V8.74202C89.0057 7.81055 88.4485 7.1568 87.4323 7.1568C86.613 7.1568 85.9901 7.63082 85.6131 8.26812V13.2689C85.6156 13.3033 85.6113 13.3379 85.6002 13.3706C85.5892 13.4033 85.5717 13.4335 85.5488 13.4593C85.5259 13.4852 85.4981 13.5063 85.4669 13.5213C85.4357 13.5363 85.4019 13.5449 85.3673 13.5467H83.5153C83.4791 13.5481 83.443 13.5417 83.4095 13.5279C83.376 13.5142 83.3458 13.4935 83.3209 13.4672C83.2961 13.4409 83.2772 13.4096 83.2655 13.3754C83.2538 13.3412 83.2496 13.3049 83.2532 13.2689V5.47358C83.2514 5.40652 83.2762 5.34145 83.3222 5.2925C83.3682 5.24356 83.4318 5.21467 83.499 5.21211H85.3673C85.4018 5.20924 85.4365 5.21418 85.4687 5.22655C85.501 5.23892 85.53 5.25842 85.5537 5.28357C85.5773 5.30872 85.5949 5.33887 85.6053 5.37178C85.6156 5.40468 85.6183 5.43949 85.6132 5.47358V6.47045C86.1867 5.75142 87.0554 5.09766 88.3501 5.09766C90.0056 5.09766 91.366 6.15993 91.366 8.20272V12.0269C91.3622 12.4207 91.3895 12.8141 91.4478 13.2035C91.4806 13.3834 91.415 13.5467 91.2838 13.5467Z" fill="white"/>
<defs>
<linearGradient id="paint0_linear_4576_36408" x1="3.23869" y1="9" x2="14.6431" y2="9" gradientUnits="userSpaceOnUse">
<stop stop-color="#04E2B6"/>
<stop offset="1" stop-color="#00D3FF"/>
</linearGradient>
</defs>
</svg>
