<svg width="86" height="92" viewBox="0 0 86 92" fill="none" xmlns="http://www.w3.org/2000/svg">
<g id="Graphic">
<path id="Vector" d="M6.6875 40.6729C6.6875 49.6902 10.2696 58.3382 16.6459 64.7145C23.0221 71.0907 31.6701 74.6729 40.6875 74.6729C49.7049 74.6729 58.3529 71.0907 64.7291 64.7145C71.1054 58.3382 74.6875 49.6902 74.6875 40.6729C74.6875 31.6555 71.1054 23.0075 64.7291 16.6312C58.3529 10.255 49.7049 6.67285 40.6875 6.67285C31.6701 6.67285 23.0221 10.255 16.6459 16.6312C10.2696 23.0075 6.6875 31.6555 6.6875 40.6729Z" stroke="#C2CCD6" stroke-width="12" stroke-linecap="round" stroke-linejoin="round"/>
<path id="Vector_2" d="M62.3125 67.3271L79.3125 85.3271" stroke="#C2CCD6" stroke-width="12" stroke-linecap="round" stroke-linejoin="round"/>
<path id="?" d="M40.7286 48.1294C39.8966 48.1294 39.2886 48.0174 38.9046 47.7934C38.5206 47.5694 38.2806 47.2654 38.1846 46.8814C38.1206 46.4654 38.0886 46.0174 38.0886 45.5374V42.4174C38.0886 41.6494 38.2646 41.0414 38.6166 40.5934C38.9686 40.1454 39.4166 39.7774 39.9606 39.4894C40.5366 39.1694 41.1286 38.8814 41.7366 38.6254C42.3766 38.3374 42.9686 38.0174 43.5126 37.6654C44.0886 37.2814 44.5526 36.7854 44.9046 36.1774C45.2566 35.5694 45.4326 34.7694 45.4326 33.7774C45.4326 32.3054 45.0166 31.1854 44.1846 30.4174C43.3846 29.6174 42.1526 29.2174 40.4886 29.2174C39.7206 29.2174 39.0326 29.3454 38.4246 29.6014C37.8166 29.8254 37.3046 30.1454 36.8886 30.5614C36.5046 30.9454 36.2166 31.4094 36.0246 31.9534C35.8326 32.5614 35.5926 33.0254 35.3046 33.3454C35.0486 33.6654 34.7126 33.8574 34.2966 33.9214C33.9126 33.9854 33.3686 33.9054 32.6646 33.6814C31.9926 33.3934 31.4966 33.1214 31.1766 32.8654C30.8566 32.6094 30.6646 32.2894 30.6006 31.9054C30.5686 31.5214 30.6486 31.0254 30.8406 30.4174C30.9366 30.0014 31.1286 29.5214 31.4166 28.9774C31.7046 28.4334 32.0886 27.8734 32.5686 27.2974C33.0806 26.6894 33.7046 26.1454 34.4406 25.6654C35.2086 25.1534 36.0886 24.7534 37.0806 24.4654C38.0726 24.1454 39.2086 23.9854 40.4886 23.9854C42.5366 23.9854 44.3286 24.4014 45.8646 25.2334C47.4006 26.0334 48.5846 27.1694 49.4166 28.6414C50.2806 30.0814 50.7126 31.7614 50.7126 33.6814C50.7126 34.8334 50.5526 35.8734 50.2326 36.8014C49.9126 37.7294 49.4646 38.5454 48.8886 39.2494C48.3446 39.9534 47.7366 40.5614 47.0646 41.0734C46.3926 41.5854 45.7206 42.0014 45.0486 42.3214C44.3766 42.6414 43.7526 42.8814 43.1766 43.0414L43.4646 42.5134V45.7294C43.4646 46.1774 43.4166 46.5934 43.3206 46.9774C43.2246 47.3294 42.9846 47.6174 42.6006 47.8414C42.2166 48.0334 41.5926 48.1294 40.7286 48.1294ZM40.6806 58.3054C39.3686 58.3054 38.5046 58.0494 38.0886 57.5374C37.6726 57.0254 37.4646 56.1934 37.4646 55.0414C37.4646 54.5614 37.5126 54.0814 37.6086 53.6014C37.7046 53.0894 37.9766 52.6734 38.4246 52.3534C38.8726 52.0014 39.6406 51.8254 40.7286 51.8254C42.0726 51.8254 42.9366 52.0814 43.3206 52.5934C43.7366 53.1054 43.9446 53.9374 43.9446 55.0894C43.9446 55.6014 43.8966 56.1134 43.8006 56.6254C43.7366 57.1054 43.4646 57.5054 42.9846 57.8254C42.5366 58.1454 41.7686 58.3054 40.6806 58.3054Z" fill="#C2CCD6"/>
</g>
</svg>
