<svg width="16" height="16" viewBox="0 0 16 16" fill="none" xmlns="http://www.w3.org/2000/svg">
<g id="Users Icon">
<path id="Vector" d="M0.5 13.5C0.5 12.3065 0.974106 11.1619 1.81802 10.318C2.66193 9.47411 3.80653 9 5 9C6.19347 9 7.33807 9.47411 8.18198 10.318C9.02589 11.1619 9.5 12.3065 9.5 13.5M10.542 10.0453C11.0987 9.84014 11.6968 9.77246 12.2853 9.84803C12.8738 9.92361 13.4353 10.1402 13.9221 10.4794C14.4089 10.8186 14.8066 11.2704 15.0813 11.7963C15.356 12.3222 15.4997 12.9067 15.5 13.5M2.25 5.25C2.25 5.97935 2.53973 6.67882 3.05546 7.19454C3.57118 7.71027 4.27065 8 5 8C5.72935 8 6.42882 7.71027 6.94454 7.19454C7.46027 6.67882 7.75 5.97935 7.75 5.25C7.75 4.52065 7.46027 3.82118 6.94454 3.30546C6.42882 2.78973 5.72935 2.5 5 2.5C4.27065 2.5 3.57118 2.78973 3.05546 3.30546C2.53973 3.82118 2.25 4.52065 2.25 5.25ZM9.56799 6.75C9.56799 7.34674 9.80505 7.91903 10.227 8.34099C10.649 8.76295 11.2213 9 11.818 9C12.4147 9 12.987 8.76295 13.409 8.34099C13.8309 7.91903 14.068 7.34674 14.068 6.75C14.068 6.15326 13.8309 5.58097 13.409 5.15901C12.987 4.73705 12.4147 4.5 11.818 4.5C11.2213 4.5 10.649 4.73705 10.227 5.15901C9.80505 5.58097 9.56799 6.15326 9.56799 6.75Z" stroke="#A6C8D9" stroke-linecap="round" stroke-linejoin="round"/>
</g>
</svg>
